<?xml version="1.0" encoding="UTF-8"?>
<svg id="Layer_1" data-name="Layer 1" xmlns="http://www.w3.org/2000/svg" xmlns:xlink="http://www.w3.org/1999/xlink" version="1.1" viewBox="0 0 180 102">
  <defs>
    <style>
      .cls-1 {
        clip-path: url(#clippath);
      }

      .cls-2 {
        fill: none;
      }

      .cls-2, .cls-3, .cls-4 {
        stroke-width: 0px;
      }

      .cls-3 {
        fill: #d5d5d5;
      }

      .cls-4 {
        fill: #151515;
      }
    </style>
    <clipPath id="clippath">
      <rect class="cls-2" x="39" y="47" width="102.2" height="8"/>
    </clipPath>
  </defs>
  <rect class="cls-3" width="180" height="102"/>
  <g class="cls-1">
    <g>
      <path class="cls-4" d="M48.3,47.1v1.2h1.5l-2.5,4.7-2.5-4.7h1.8v-1.2h-7.6v1.2h1.7l3.5,6.5h4.1l3.4-6.5h1.7v-1.2h-5.2Z"/>
      <path class="cls-4" d="M85.6,48.3v-1.2h7v1.2h-1.7v5.3h1.6c1.5,0,2.5-1,2.5-2.3h1.1v3.5h-10.5v-1.2h1.8v-5.3h-1.7Z"/>
      <path class="cls-4" d="M68.7,47c-3.5,0-5.4,1.8-5.4,4s1.8,4,5.4,4,5.4-1.8,5.4-4c0-2.2-1.9-4-5.4-4ZM68.6,53.8c-1.3,0-1.8-1.4-1.8-2.9,0-1.5.7-2.8,1.9-2.7,1.2,0,1.8,1.3,1.8,2.8,0,1.4-.6,2.8-1.9,2.8Z"/>
      <path class="cls-4" d="M107.9,48.3l3.5,6.5h4l3.5-6.5h1.7v-1.2h-5.2v1.2h1.5l-2.5,4.7-2.6-4.7h1.8v-1.2h-7.6v1.2h1.7Z"/>
      <path class="cls-4" d="M135.8,47c-3.5,0-5.4,1.8-5.4,4s1.8,4,5.4,4,5.4-1.8,5.4-4-1.9-4-5.4-4ZM135.8,53.8c-1.3,0-1.8-1.4-1.8-2.9,0-1.5.7-2.8,1.9-2.7,1.2,0,1.8,1.3,1.8,2.8,0,1.4-.6,2.8-1.9,2.8Z"/>
    </g>
  </g>
</svg>