<svg width="38" height="38" viewBox="0 0 38 38" fill="none" xmlns="http://www.w3.org/2000/svg">
    <path fill-rule="evenodd" clip-rule="evenodd" d="M19 37C28.9411 37 37 28.9411 37 19C37 9.05887 28.9411 1 19 1C9.05887 1 1 9.05887 1 19C1 28.9411 9.05887 37 19 37ZM19 38C29.4934 38 38 29.4934 38 19C38 8.50659 29.4934 0 19 0C8.50659 0 0 8.50659 0 19C0 29.4934 8.50659 38 19 38Z" fill="currentColor"/>
    <path fill-rule="evenodd" clip-rule="evenodd" d="M26.092 19L16 12.7896V25.2104L26.092 19ZM15.238 25.6794C15.2378 25.6795 15.2381 25.6793 15.238 25.6794V25.6794ZM27.308 19.4258L15.762 26.531C15.4289 26.7361 15 26.4964 15 26.1052V11.8948C15 11.5036 15.4289 11.2639 15.762 11.469L27.308 18.5742C27.6253 18.7694 27.6253 19.2306 27.308 19.4258Z" fill="currentColor"/>
</svg>
