<svg xmlns="http://www.w3.org/2000/svg" xmlns:xlink="http://www.w3.org/1999/xlink" width="102" zoomAndPan="magnify" viewBox="0 0 76.5 76.499999" height="102" preserveAspectRatio="xMidYMid meet" version="1.0"><defs><clipPath id="eb2cdcd8b2"><path d="M 0 0 L 76.003906 0 L 76.003906 76.003906 L 0 76.003906 Z M 0 0 " clip-rule="nonzero"/></clipPath><clipPath id="12c085b277"><path d="M 15.121094 36.152344 L 22 36.152344 L 22 39.878906 L 15.121094 39.878906 Z M 15.121094 36.152344 " clip-rule="nonzero"/></clipPath><clipPath id="085f1765dc"><path d="M 35 36.152344 L 41 36.152344 L 41 39.878906 L 35 39.878906 Z M 35 36.152344 " clip-rule="nonzero"/></clipPath><clipPath id="34608ac429"><path d="M 25 36.152344 L 31 36.152344 L 31 39.878906 L 25 39.878906 Z M 25 36.152344 " clip-rule="nonzero"/></clipPath><clipPath id="eda9c10506"><path d="M 45 36.152344 L 52 36.152344 L 52 39.878906 L 45 39.878906 Z M 45 36.152344 " clip-rule="nonzero"/></clipPath><clipPath id="3d17a8ab8d"><path d="M 56 36.152344 L 60.882812 36.152344 L 60.882812 39.878906 L 56 39.878906 Z M 56 36.152344 " clip-rule="nonzero"/></clipPath></defs><g clip-path="url(#eb2cdcd8b2)"><path fill="#ffffff" d="M 0 0 L 76.003906 0 L 76.003906 76.003906 L 0 76.003906 Z M 0 0 " fill-opacity="1" fill-rule="nonzero"/><path fill="#ffffff" d="M 0 0 L 76.003906 0 L 76.003906 76.003906 L 0 76.003906 Z M 0 0 " fill-opacity="1" fill-rule="nonzero"/><rect x="-7.65" width="91.8" fill="#c4c4c4" y="-7.65" height="91.799999" fill-opacity="1"/><path stroke-linecap="butt" transform="matrix(0.993507, 0, 0, 0.993507, -21.099366, -21.099365)" fill="none" stroke-linejoin="miter" d="M 0.501057 0.501056 L 101.500634 0.501056 L 101.500634 101.500633 L 0.501057 101.500633 Z M 0.501057 0.501056 " stroke="#d5d5d5" stroke-width="1" stroke-opacity="1" stroke-miterlimit="4"/></g><g clip-path="url(#12c085b277)"><path fill="#141414" d="M 19.285156 36.21875 L 19.285156 36.773438 L 19.953125 36.773438 L 18.824219 38.960938 L 17.695312 36.773438 L 18.507812 36.773438 L 18.507812 36.21875 L 15.121094 36.21875 L 15.121094 36.773438 L 15.898438 36.773438 L 17.472656 39.777344 L 19.300781 39.777344 L 20.84375 36.773438 L 21.621094 36.773438 L 21.621094 36.21875 Z M 19.285156 36.21875 " fill-opacity="1" fill-rule="nonzero"/></g><g clip-path="url(#085f1765dc)"><path fill="#141414" d="M 35.964844 36.773438 L 35.964844 36.21875 L 39.082031 36.21875 L 39.082031 36.773438 L 38.304688 36.773438 L 38.304688 39.226562 L 39.019531 39.226562 C 39.6875 39.226562 40.132812 38.761719 40.132812 38.140625 L 40.640625 38.140625 L 40.640625 39.777344 L 35.949219 39.777344 L 35.949219 39.226562 L 36.746094 39.226562 L 36.746094 36.773438 Z M 35.964844 36.773438 " fill-opacity="1" fill-rule="nonzero"/></g><g clip-path="url(#34608ac429)"><path fill="#141414" d="M 28.394531 36.152344 C 26.820312 36.152344 25.996094 36.972656 25.996094 38.007812 C 25.996094 39.0625 26.789062 39.878906 28.414062 39.878906 C 30.019531 39.878906 30.8125 39.042969 30.8125 38.007812 C 30.796875 36.972656 29.953125 36.152344 28.394531 36.152344 Z M 28.363281 39.328125 C 27.792969 39.3125 27.539062 38.660156 27.554688 37.992188 C 27.570312 37.304688 27.871094 36.703125 28.414062 36.722656 C 28.953125 36.738281 29.238281 37.339844 29.222656 38.023438 C 29.207031 38.660156 28.96875 39.328125 28.363281 39.328125 Z M 28.363281 39.328125 " fill-opacity="1" fill-rule="nonzero"/></g><g clip-path="url(#eda9c10506)"><path fill="#141414" d="M 45.984375 36.773438 L 47.558594 39.777344 L 49.371094 39.777344 L 50.929688 36.773438 L 51.691406 36.773438 L 51.691406 36.21875 L 49.371094 36.21875 L 49.371094 36.773438 L 50.039062 36.773438 L 48.910156 38.960938 L 47.765625 36.773438 L 48.589844 36.773438 L 48.589844 36.21875 L 45.203125 36.21875 L 45.203125 36.773438 Z M 45.984375 36.773438 " fill-opacity="1" fill-rule="nonzero"/></g><g clip-path="url(#3d17a8ab8d)"><path fill="#141414" d="M 58.46875 36.152344 C 56.894531 36.152344 56.066406 36.972656 56.066406 38.007812 C 56.066406 39.0625 56.859375 39.878906 58.484375 39.878906 C 60.089844 39.878906 60.882812 39.042969 60.882812 38.007812 C 60.882812 36.972656 60.042969 36.152344 58.46875 36.152344 Z M 58.453125 39.328125 C 57.878906 39.3125 57.625 38.660156 57.640625 37.992188 C 57.65625 37.304688 57.957031 36.703125 58.5 36.722656 C 59.039062 36.738281 59.324219 37.339844 59.308594 38.023438 C 59.292969 38.660156 59.039062 39.328125 58.453125 39.328125 Z M 58.453125 39.328125 " fill-opacity="1" fill-rule="nonzero"/></g></svg>