<svg width="24" height="25" viewBox="0 0 24 25" fill="none" xmlns="http://www.w3.org/2000/svg">
<path d="M15.6998 1.89258C11.5998 1.89258 8.2998 5.09258 8.2998 9.09258C8.2998 13.0926 11.5998 16.2926 15.6998 16.2926C19.7998 16.2926 23.0998 13.0926 23.0998 9.09258C23.0998 5.09258 19.7998 1.89258 15.6998 1.89258ZM15.6998 2.59258C19.2998 2.59258 22.2998 5.49258 22.2998 9.09258C22.2998 12.6926 19.2998 15.5926 15.6998 15.5926C12.0998 15.5926 9.0998 12.6926 9.0998 9.09258C9.0998 5.49258 12.0998 2.59258 15.6998 2.59258Z" fill="currentColor"/>
<path d="M11.3 14.093H10.5V13.593C10.5 12.093 11.8 10.793 13.3 10.793H18.2C19.8 10.793 21 11.993 21 13.593V13.993H20.2V13.593C20.2 12.493 19.3 11.593 18.1 11.593H13.2C12.1 11.593 11.1 12.493 11.1 13.593V14.093H11.3Z" fill="currentColor"/>
<path d="M15.7002 3.99219C14.3002 3.99219 13.2002 5.09219 13.2002 6.49219C13.2002 7.89219 14.3002 8.99219 15.7002 8.99219C17.1002 8.99219 18.2002 7.89219 18.2002 6.49219C18.3002 5.09219 17.1002 3.99219 15.7002 3.99219ZM15.7002 4.69219C16.7002 4.69219 17.5002 5.49219 17.5002 6.39219C17.5002 7.39219 16.7002 8.09219 15.7002 8.09219C14.7002 8.09219 13.9002 7.29219 13.9002 6.39219C14.0002 5.49219 14.8002 4.69219 15.7002 4.69219Z" fill="currentColor"/>
<path d="M24 22.993H0L8.7 17.293H10L2.5 22.293H21.5L14 17.293H15.3L24 22.993Z" fill="currentColor"/>
<path d="M12.3996 20.5918H11.5996V22.6918H12.3996V20.5918Z" fill="currentColor"/>
<path d="M12.3996 18.6934H11.5996V19.6934H12.3996V18.6934Z" fill="currentColor"/>
<path d="M12.3996 17.293H11.5996V17.893H12.3996V17.293Z" fill="currentColor"/>
<path d="M13.2996 10.1926L12.4996 9.79258C11.9996 9.49258 11.5996 8.69258 11.5996 7.99258V6.39258H12.3996V7.99258C12.3996 8.39258 12.6996 8.89258 12.9996 9.09258L13.7996 9.49258L13.2996 10.1926Z" fill="currentColor"/>
<path d="M13.8994 10.5934L12.3994 9.59336L12.7994 8.99336C12.8994 8.79336 13.0994 8.69336 13.2994 8.69336C13.3994 8.69336 13.4994 8.69336 13.5994 8.79336L14.0994 9.09336C14.3994 9.29336 14.4994 9.59336 14.2994 9.89336L13.8994 10.5934Z" fill="currentColor"/>
</svg>
