<svg width="24" height="25" viewBox="0 0 24 25" fill="none" xmlns="http://www.w3.org/2000/svg">
<g clip-path="url(#clipbuildyourown)">
<path d="M21.3 15.893H20.4V15.193H20.6V14.293L21.1 14.393V13.493L20.6 13.693V12.993H18L17.7 13.193V14.293L18 14.493L17.6 15.093L17 14.693V12.793L17.8 12.293H21.3V12.793L21.8 12.693V15.293L21.3 15.193V15.893Z" fill="currentColor"/>
<path d="M20.6 12.7922H18.4L18 10.9922H20.9L20.6 12.7922ZM19 12.0922H20L20.1 11.7922H18.9L19 12.0922Z" fill="currentColor"/>
<path d="M15.7998 15.0918V12.5918L17.6998 12.8918V14.7918L15.7998 15.0918ZM16.4998 13.3918V14.2918L16.8998 14.1918V13.4918L16.4998 13.3918Z" fill="currentColor"/>
<path d="M16.0002 17.5918H14.2002V18.2918H16.0002V17.5918Z" fill="currentColor"/>
<path d="M23.6004 16.0926H22.9004V3.69258C22.9004 3.39258 22.7004 3.09258 22.4004 3.09258H9.20039C8.90039 3.09258 8.70039 3.39258 8.70039 3.69258V11.3926H7.90039V3.69258C7.90039 2.99258 8.50039 2.39258 9.10039 2.39258H22.3004C23.0004 2.39258 23.5004 2.99258 23.5004 3.69258V16.0926H23.6004Z" fill="currentColor"/>
<path d="M20.8008 22.4926C20.3008 22.4926 19.8008 22.3926 19.5008 22.1926C17.6008 21.1926 16.8008 17.6926 16.8008 17.4926L17.5008 17.3926C17.5008 17.3926 18.2008 20.7926 19.8008 21.5926C20.5008 21.9926 22.2008 21.8926 22.9008 20.8926C23.4008 20.1926 23.3008 18.5926 23.3008 17.9926L24.0008 17.8926C24.0008 17.9926 24.3008 20.1926 23.5008 21.2926C22.9008 22.0926 21.8008 22.4926 20.8008 22.4926Z" fill="currentColor"/>
<path d="M23.3004 17.9918C23.3004 17.7918 23.1004 17.6918 22.9004 17.8918L22.4004 17.4918C22.6004 17.2918 22.8004 17.0918 23.1004 17.0918C23.5004 17.0918 24.0004 17.4918 24.0004 17.8918L23.3004 17.9918Z" fill="currentColor"/>
<path d="M21.9 17.4934C21.9 17.3934 21.6 17.3934 21.6 17.4934L21 17.1934C21.2 16.8934 21.4 16.6934 21.8 16.6934C22.2 16.6934 22.6 16.9934 22.6 17.3934L21.9 17.4934Z" fill="currentColor"/>
<path d="M19.9 17.393C19.7 17.393 19.5 17.193 19.5 16.993C19.5 16.893 19.5 16.793 19.6 16.693C19.8 16.393 20 16.293 20.3 16.293C20.8 16.293 21.2 16.693 21.2 17.093H20.6C20.6 16.893 20.3 16.893 20.2 17.093C20.1 17.193 20.1 17.393 19.9 17.393Z" fill="currentColor"/>
<path d="M19.9008 14.4934H19.2008C19.2008 14.3934 19.0008 14.3934 19.0008 14.4934H18.3008C18.3008 13.9934 18.6008 13.6934 19.1008 13.6934C19.6008 13.6934 19.9008 14.0934 19.9008 14.4934Z" fill="currentColor"/>
<path d="M16.8008 17.5922C16.8008 17.2922 16.8008 17.0922 16.8008 16.9922C16.9008 16.5922 17.2008 16.4922 17.6008 16.4922C18.0008 16.4922 18.3008 16.7922 18.4008 17.0922L17.8008 17.2922C17.7008 17.1922 17.5008 17.1922 17.5008 17.3922L16.8008 17.5922Z" fill="currentColor"/>
<path d="M18.5998 18.6926C18.4998 18.6926 18.2998 18.5926 18.2998 18.4926L17.7998 17.2926L18.2998 17.0926V14.3926H18.9998V18.3926C18.8998 18.5926 18.7998 18.6926 18.5998 18.6926Z" fill="currentColor"/>
<path d="M19.6002 18.2922C19.4002 18.2922 19.2002 18.0922 19.2002 17.8922V14.4922H19.9002V16.8922L20.2002 16.9922L19.9002 18.0922C19.9002 18.1922 19.7002 18.2922 19.6002 18.2922Z" fill="currentColor"/>
<path d="M20.9996 18.1922C20.9996 18.1922 20.8996 18.1922 20.9996 18.1922C20.7996 18.1922 20.6996 17.9922 20.6996 17.8922L20.5996 17.0922L21.2996 16.9922V17.2922L21.5996 17.3922L21.2996 17.9922C21.1996 18.0922 21.0996 18.1922 20.9996 18.1922Z" fill="currentColor"/>
<path d="M22.3004 18.493H22.2004C22.1004 18.493 22.0004 18.293 22.0004 18.193L21.9004 17.393L22.5004 17.293H22.6004V17.393L23.0004 17.793L22.6004 18.293C22.5004 18.393 22.4004 18.493 22.3004 18.493Z" fill="currentColor"/>
<path d="M7.40078 17.7931C8.30078 17.7931 8.90078 17.7931 9.20078 17.7931C9.20078 17.9931 9.20078 18.0931 9.20078 18.1931H9.10078C8.70078 18.1931 8.10078 18.2931 7.60078 18.2931H7.50078H7.40078C6.90078 18.2931 6.30078 18.1931 5.90078 18.1931H5.80078C5.80078 18.0931 5.80078 17.9931 5.80078 17.7931C5.80078 17.7931 6.40078 17.7931 7.40078 17.7931ZM7.40078 17.0931C6.90078 17.0931 5.30078 17.0931 5.20078 17.0931C5.00078 17.0931 4.80078 17.0931 4.80078 17.3931C4.80078 17.7931 4.90078 18.2931 4.90078 18.2931C4.90078 18.2931 4.90078 18.7931 5.30078 18.7931C5.70078 18.7931 6.50078 18.8931 7.20078 18.8931C7.30078 18.8931 7.30078 18.8931 7.40078 18.8931C7.50078 18.8931 7.50078 18.8931 7.60078 18.8931C8.30078 18.8931 9.10078 18.7931 9.50078 18.7931C9.90078 18.7931 9.90078 18.2931 9.90078 18.2931C9.90078 18.2931 10.0008 17.7931 10.0008 17.3931C10.0008 16.9931 9.80078 17.0931 9.60078 17.0931C9.40078 17.0931 7.90078 17.0931 7.40078 17.0931Z" fill="currentColor"/>
<path d="M9.70039 12.893C10.1004 12.893 10.6004 13.193 10.8004 13.593L12.2004 16.193C12.4004 16.593 12.6004 17.393 12.6004 17.793V21.493H12.0004L11.8004 20.593L11.7004 20.093H11.1004H3.50039H3.00039L2.90039 20.593L2.60039 21.493H2.10039V17.693C2.10039 17.193 2.30039 16.493 2.50039 16.093L3.90039 13.493C4.20039 12.993 4.70039 12.893 5.00039 12.893H9.70039ZM9.70039 12.293H5.00039C4.40039 12.293 3.70039 12.493 3.30039 13.193L1.90039 15.793C1.60039 16.293 1.40039 17.193 1.40039 17.793V21.693C1.40039 21.993 1.60039 22.193 1.90039 22.193H2.70039C2.90039 22.193 3.20039 21.993 3.20039 21.793L3.40039 20.793H11.0004L11.2004 21.793C11.3004 21.993 11.5004 22.193 11.7004 22.193H12.5004C12.8004 22.193 13.0004 21.993 13.0004 21.693V17.793C13.0004 17.193 12.8004 16.293 12.5004 15.793L11.1004 13.193C10.8004 12.493 10.2004 12.293 9.70039 12.293Z" fill="currentColor"/>
<path d="M4.3002 17.9918C4.1002 17.9918 3.8002 17.9918 3.3002 17.8918C3.0002 17.8918 2.8002 17.7918 2.7002 17.7918L2.8002 17.0918C2.8002 17.0918 2.9002 17.0918 2.9002 17.1918C3.0002 17.1918 3.0002 17.2918 3.3002 17.2918C3.8002 17.3918 4.1002 17.3918 4.3002 17.3918V17.9918Z" fill="currentColor"/>
<path d="M2.70673 16.973L2.56934 18.0645L3.26388 18.1519L3.40127 17.0605L2.70673 16.973Z" fill="currentColor"/>
<path d="M10.5004 17.9918L10.4004 17.2918C10.6004 17.2918 10.8004 17.2918 11.3004 17.1918C11.5004 17.1918 11.6004 17.0918 11.7004 17.0918H11.8004L12.0004 17.7918H11.9004C11.8004 17.8918 11.6004 17.8918 11.3004 17.8918C10.9004 17.9918 10.6004 17.9918 10.5004 17.9918Z" fill="currentColor"/>
<path d="M12.0295 16.9537L11.335 17.041L11.4722 18.1324L12.1668 18.0451L12.0295 16.9537Z" fill="currentColor"/>
<path d="M13.0004 5.69258H12.0004C11.7004 5.69258 11.4004 5.39258 11.4004 5.09258L11.5004 4.49258C11.5004 4.19258 11.8004 3.89258 12.1004 3.89258H12.9004C13.2004 3.89258 13.5004 4.19258 13.5004 4.49258L13.6004 5.09258C13.6004 5.39258 13.3004 5.69258 13.0004 5.69258ZM12.1004 4.99258H12.9004L12.8004 4.59258H12.2004L12.1004 4.99258Z" fill="currentColor"/>
<path d="M12.7006 7.5918H12.3006C12.1006 7.5918 11.8006 7.4918 11.7006 6.9918L11.6006 6.1918V6.0918L12.3006 6.1918L12.4006 6.8918H12.5006L12.6006 6.1918H13.3006V6.2918L13.2006 7.0918C13.2006 7.4918 12.9006 7.5918 12.7006 7.5918Z" fill="currentColor"/>
<path d="M12.5002 10.9926H10.9002C10.5002 10.9926 10.3002 10.6926 10.2002 10.3926V9.69258C10.2002 9.29258 10.7002 8.99258 10.9002 8.89258L11.2002 9.49258C11.1002 9.49258 11.0002 9.59258 10.9002 9.59258V10.2926L12.5002 10.1926V10.9926Z" fill="currentColor"/>
<path d="M14.1 10.993H12.5V10.193H14.1V9.49297C14.1 9.49297 13.9 9.39297 13.8 9.29297L14 8.79297C14.2 8.89297 14.7 9.09297 14.7 9.59297V10.293C14.7 10.593 14.5 10.993 14.1 10.993Z" fill="currentColor"/>
<path d="M13.2 9.79219H11.8C11.1 9.79219 10.5 8.89219 10.5 8.39219C10.5 8.19219 10.5 7.99219 10.6 7.79219C10.7 7.49219 10.7 7.19219 10.7 6.79219C10.7 5.79219 11.3 5.49219 11.6 5.49219H13.3C13.6 5.49219 14.2 5.79219 14.2 6.79219C14.2 7.19219 14.3 7.49219 14.3 7.79219C14.4 7.99219 14.4 8.19219 14.4 8.39219C14.5 8.99219 13.9 9.79219 13.2 9.79219ZM11.7 6.29219C11.6 6.29219 11.5 6.39219 11.5 6.89219C11.5 7.39219 11.4 7.69219 11.3 7.99219C11.3 8.19219 11.2 8.29219 11.2 8.39219C11.2 8.59219 11.6 9.09219 11.8 9.09219H13.2C13.4 9.09219 13.8 8.69219 13.8 8.39219C13.8 8.29219 13.8 8.09219 13.7 7.99219C13.6 7.69219 13.5 7.29219 13.5 6.89219C13.5 6.49219 13.4 6.39219 13.3 6.29219H11.7Z" fill="currentColor"/>
<path d="M19.1002 7.99316C18.6002 7.99316 18.2002 7.59316 18.2002 7.09316C18.2002 6.59316 18.6002 6.19316 19.1002 6.19316C19.6002 6.09316 20.0002 6.49316 20.0002 6.99316C20.0002 7.49316 19.6002 7.99316 19.1002 7.99316ZM19.1002 6.79316C19.0002 6.79316 18.9002 6.89316 18.9002 6.99316C18.9002 7.09316 19.0002 7.19316 19.1002 7.19316C19.2002 7.19316 19.3002 7.09316 19.3002 6.99316C19.3002 6.89316 19.2002 6.79316 19.1002 6.79316Z" fill="currentColor"/>
<path d="M19.1006 9.99219C17.5006 9.99219 16.1006 8.69219 16.1006 6.99219C16.1006 5.29219 17.4006 3.99219 19.1006 3.99219C20.7006 3.99219 22.1006 5.29219 22.1006 6.99219C22.1006 8.69219 20.7006 9.99219 19.1006 9.99219ZM19.1006 4.69219C17.8006 4.69219 16.8006 5.69219 16.8006 6.99219C16.8006 8.29219 17.8006 9.29219 19.1006 9.29219C20.4006 9.29219 21.4006 8.29219 21.4006 6.99219C21.4006 5.69219 20.3006 4.69219 19.1006 4.69219Z" fill="currentColor"/>
<path d="M19.4002 7.39258H18.7002V8.69258H19.4002V7.39258Z" fill="currentColor"/>
<path d="M19.4002 5.29297H18.7002V6.59297H19.4002V5.29297Z" fill="currentColor"/>
<path d="M19.6002 7.09258L19.2002 6.49258L20.4002 5.89258L20.7002 6.49258L19.6002 7.09258Z" fill="currentColor"/>
<path d="M18.5354 6.9155L17.4102 7.56641L17.7606 8.17233L18.8859 7.52142L18.5354 6.9155Z" fill="currentColor"/>
<path d="M17.7083 5.79412L17.3584 6.40039L18.4843 7.05013L18.8342 6.44386L17.7083 5.79412Z" fill="currentColor"/>
<path d="M19.5649 6.9231L19.2148 7.5293L20.3406 8.17943L20.6907 7.57323L19.5649 6.9231Z" fill="currentColor"/>
<path d="M12.4002 15.7926L12.2637 15.5783L12.2002 15.3926V14.5926C12.2002 14.3926 12.3002 14.1926 12.4002 14.0926C12.5002 13.9926 12.7002 13.8926 12.9002 13.8926L13.8002 13.9926C14.2002 13.9926 14.4002 14.3926 14.4002 14.6926C14.4002 15.0926 14.1002 15.3926 13.8002 15.4926L12.4002 15.7926ZM13.0002 14.6926V15.0926L13.9002 14.9926V14.8926L13.0002 14.6926Z" fill="currentColor"/>
<path d="M0.699609 15.4926C0.399609 15.3926 0.0996094 15.0926 0.0996094 14.6926C0.0996094 14.3926 0.299609 13.9926 0.699609 13.9926L1.59961 13.8926C1.79961 13.8926 1.99961 13.9926 2.09961 14.0926C2.19961 14.1926 2.29961 14.3926 2.29961 14.5926V15.3926H2.19961L2.09961 15.7926L0.699609 15.4926ZM0.599609 14.8926V14.9926L1.49961 15.0926V14.6926L0.599609 14.8926Z" fill="currentColor"/>
</g>
<defs>
<clipPath id="clipbuildyourown">
<rect width="24" height="24" fill="white" transform="translate(0 0.392578)"/>
</clipPath>
</defs>
</svg>
