<svg width="24" height="25" viewBox="0 0 24 25" fill="none" xmlns="http://www.w3.org/2000/svg">
<g clip-path="url(#clipsunshine)">
<path d="M12.1002 18.5925C9.1002 18.5925 6.4002 16.2925 6.0002 13.1925C5.6002 9.79249 7.9002 6.69249 11.3002 6.29249C14.7002 5.79249 17.8002 8.19249 18.2002 11.5925C18.6002 14.9925 16.3002 18.0925 12.9002 18.4925C12.6002 18.5925 12.4002 18.5925 12.1002 18.5925ZM12.1002 7.39249C11.9002 7.39249 11.7002 7.39249 11.4002 7.39249C8.6002 7.79249 6.7002 10.2925 7.0002 13.0925C7.4002 15.8925 9.9002 17.7925 12.7002 17.4925C15.5002 17.0925 17.5002 14.5925 17.1002 11.7925C16.8002 9.19249 14.6002 7.39249 12.1002 7.39249Z" fill="currentColor"/>
<path d="M12.1002 18.5925C9.1002 18.5925 6.4002 16.2925 6.0002 13.1925C5.6002 9.79249 7.9002 6.69249 11.3002 6.29249C14.7002 5.79249 17.8002 8.19249 18.2002 11.5925C18.6002 14.9925 16.3002 18.0925 12.9002 18.4925C12.6002 18.5925 12.4002 18.5925 12.1002 18.5925ZM12.1002 7.39249C11.9002 7.39249 11.7002 7.39249 11.4002 7.39249C8.6002 7.79249 6.7002 10.2925 7.0002 13.0925C7.4002 15.8925 9.9002 17.7925 12.7002 17.4925C15.5002 17.0925 17.5002 14.5925 17.1002 11.7925C16.8002 9.19249 14.6002 7.39249 12.1002 7.39249Z" fill="currentColor"/>
<path d="M11.1403 0.738603L10.0498 0.882812L10.5611 4.74927L11.6516 4.60506L11.1403 0.738603Z" fill="currentColor"/>
<path d="M3.05585 4.84177L2.38672 5.71484L5.48215 8.08721L6.15128 7.21414L3.05585 4.84177Z" fill="currentColor"/>
<path d="M4.31041 12.9422L0.444336 13.4551L0.588986 14.5455L4.45506 14.0327L4.31041 12.9422Z" fill="currentColor"/>
<path d="M6.1002 22.093L5.2002 21.493L7.6002 18.293L8.4002 18.993L6.1002 22.093Z" fill="currentColor"/>
<path d="M13.6383 20.1367L12.5479 20.2812L13.0603 24.1473L14.1507 24.0028L13.6383 20.1367Z" fill="currentColor"/>
<path d="M21.1996 20.0926L18.0996 17.6926L18.6996 16.8926L21.7996 19.2926L21.1996 20.0926Z" fill="currentColor"/>
<path d="M23.6102 10.3426L19.7441 10.8555L19.8888 11.9459L23.7549 11.433L23.6102 10.3426Z" fill="currentColor"/>
<path d="M18.9302 2.72176L16.5566 5.81641L17.4295 6.48587L19.803 3.39122L18.9302 2.72176Z" fill="currentColor"/>
</g>
<defs>
<clipPath id="clipsunshine">
<rect width="24" height="24" fill="white" transform="translate(0 0.392578)"/>
</clipPath>
</defs>
</svg>
