<svg width="24" height="24" viewBox="0 0 24 24" fill="none" xmlns="http://www.w3.org/2000/svg">
<path d="M6.9 17.5L5 22.2H5.9L7.7 17.5H6.9Z" fill="currentColor"/>
<path d="M9.4 17.5L7.5 22.2H8.4L10.3 17.5H9.4Z" fill="currentColor"/>
<path d="M11.9996 17.5L10.0996 22.2H10.9996L12.8996 17.5H11.9996Z" fill="currentColor"/>
<path d="M14.5002 17.5L12.7002 22.2H13.5002L15.4002 17.5H14.5002Z" fill="currentColor"/>
<path d="M17.1002 17.5L15.2002 22.2H16.1002L18.0002 17.5H17.1002Z" fill="currentColor"/>
<path d="M22.3 6.70078C22 6.40078 20.8 5.50078 19.3 5.50078C18.6 5.50078 18 5.70078 17.3 6.00078H17.2L17 5.50078C15.9 3.20078 13.6 1.80078 11.1 1.80078C8 1.80078 5.4 3.90078 4.7 6.90078V7.00078H4.6C3.3 7.00078 2.1 7.50078 1.2 8.40078C0.4 9.30078 0 10.4008 0 11.5008C0.2 15.8008 2.7 16.1008 5.4 16.1008C5.5 16.1008 5.7 16.1008 5.8 16.1008H6C6.2 16.1008 6.4 16.1008 6.6 16.1008H17.2L19.7 16.2008C22.2 16.0008 23.9 13.9008 23.9 10.7008C24 9.10078 23.4 7.70078 22.3 6.70078ZM19.5 15.4008H17.2H4.2C2 15.4008 0.9 13.5008 0.9 11.5008C0.9 9.40078 2.6 7.70078 4.7 7.70078L5.4 7.80078L5.5 7.40078C6 4.70078 8.4 2.70078 11.2 2.70078C13.4 2.70078 15.4 3.90078 16.4 5.90078L17 7.20078L17.4 6.90078C18.1 6.50078 18.8 6.30078 19.5 6.30078C20.8 6.30078 21.7 7.20078 21.8 7.30078C22.7 8.10078 23.2 9.30078 23.2 10.7008C23.2 13.8008 21.4 15.3008 19.5 15.4008Z" fill="currentColor"/>
</svg>
