<svg width="24" height="24" viewBox="0 0 24 24" fill="none" xmlns="http://www.w3.org/2000/svg">
<path d="M12 0C5.4 0 0 5.4 0 12C0 18.6 5.4 24 12 24C18.6 24 24 18.6 24 12C24 5.4 18.6 0 12 0ZM12 1.1C18 1.1 22.9 6 22.9 12C22.9 18 18 22.9 12 22.9C6 22.9 1.1 18 1.1 12C1.1 6 6 1.1 12 1.1Z" fill="currentColor"/>
<path d="M19.5 4.5L8.9 8.9L4.5 19.6L15.1 15.1L19.5 4.5ZM17.5 6.6L14.3 14.3L6.6 17.5L9.8 9.8L17.5 6.6Z" fill="currentColor"/>
<path d="M11.9996 10.1992C10.9996 10.1992 10.0996 10.9992 10.0996 12.0992C10.0996 13.0992 10.8996 13.9992 11.9996 13.9992C12.9996 13.9992 13.8996 13.1992 13.8996 12.0992C13.8996 10.9992 12.9996 10.1992 11.9996 10.1992ZM11.9996 11.2992C12.3996 11.2992 12.6996 11.5992 12.6996 11.9992C12.6996 12.3992 12.3996 12.6992 11.9996 12.6992C11.5996 12.6992 11.2996 12.3992 11.2996 11.9992C11.2996 11.5992 11.5996 11.2992 11.9996 11.2992Z" fill="currentColor"/>
</svg>
