<svg width="24" height="24" viewBox="0 0 24 24" fill="none" xmlns="http://www.w3.org/2000/svg">
<path d="M20.7 1.1C21 1.4 21.2 1.7 21.5 2L22.9 1.5V20.6L16 22.9L8.3 20.3L8 20.2L7.7 20.3L1.1 22.5V3.5L8 1.2L10.6 2.1C10.8 1.8 11.1 1.5 11.4 1.2L8 0L0 2.7V24L8 21.3L16 24L24 21.3V0L20.7 1.1Z" fill="currentColor"/>
<path d="M8.6 3H7.5V18.6H8.6V3Z" fill="currentColor"/>
<path d="M16.6 15.4004H15.5V21.0004H16.6V15.4004Z" fill="currentColor"/>
<path d="M16.1002 0.400391C14.6002 0.400391 13.2002 1.00039 12.1002 2.10039C9.9002 4.30039 9.9002 7.90039 12.1002 10.1004L16.1002 14.1004L20.1002 10.1004C22.3002 7.90039 22.3002 4.30039 20.1002 2.10039C19.0002 0.900391 17.5002 0.400391 16.1002 0.400391ZM16.1002 1.40039C17.3002 1.40039 18.5002 1.90039 19.4002 2.70039C21.2002 4.50039 21.2002 7.40039 19.4002 9.20039L16.1002 12.5004L12.8002 9.20039C11.0002 7.40039 11.0002 4.50039 12.8002 2.70039C13.7002 1.90039 14.8002 1.40039 16.1002 1.40039Z" fill="currentColor"/>
<path d="M16.0998 3.69922C14.7998 3.69922 13.7998 4.69922 13.7998 5.99922C13.7998 7.29922 14.7998 8.29922 16.0998 8.29922C17.3998 8.29922 18.3998 7.29922 18.3998 5.99922C18.3998 4.69922 17.2998 3.69922 16.0998 3.69922ZM16.0998 4.69922C16.7998 4.69922 17.2998 5.19922 17.2998 5.89922C17.2998 6.59922 16.7998 7.09922 16.0998 7.09922C15.3998 7.09922 14.8998 6.59922 14.8998 5.89922C14.8998 5.29922 15.3998 4.69922 16.0998 4.69922Z" fill="currentColor"/>
</svg>
