<svg width="26" height="26" viewBox="0 0 26 26" fill="none" xmlns="http://www.w3.org/2000/svg">
<path d="M23.3068 10.2623C23.0068 9.94493 21.8068 8.99273 20.3068 8.99273C19.6068 8.99273 19.0068 9.20433 18.3068 9.52173H18.2068L18.0068 8.99273C16.9068 6.55933 14.6068 5.07812 12.1068 5.07812C9.00682 5.07812 6.40682 7.29993 5.70682 10.4739V10.5797H5.60682C4.30682 10.5797 3.10682 11.1087 2.20682 12.0609C1.40682 13.0131 0.90682 14.1769 1.00682 15.3407C1.20682 19.8902 3.70682 20.2076 6.40682 20.2076C6.50682 20.2076 6.70682 20.2076 6.80682 20.2076H7.00682C7.20682 20.2076 7.40682 20.2076 7.60682 20.2076H18.2068L20.7068 20.3134C23.2068 20.1018 24.9068 17.8799 24.9068 14.4943C25.0068 12.8015 24.4068 11.3203 23.3068 10.2623ZM20.5068 19.467H18.2068H5.20682C3.00682 19.467 1.90682 17.4567 1.90682 15.3407C1.90682 13.1189 3.60682 11.3203 5.70682 11.3203L6.40682 11.4261L6.50682 11.0029C7.00682 8.14633 9.40682 6.03033 12.2068 6.03033C14.4068 6.03033 16.4068 7.29993 17.4068 9.41593L18.1068 10.8971L18.5068 10.5797C19.2068 10.1565 19.9068 9.94493 20.6068 9.94493C21.9068 9.94493 22.8068 10.8971 22.9068 11.0029C23.8068 11.8493 24.3068 13.1189 24.3068 14.6001C24.2068 17.7741 22.4068 19.3612 20.5068 19.467Z" fill="currentColor"/>
</svg>
