<svg width="24" height="25" viewBox="0 0 24 25" fill="none" xmlns="http://www.w3.org/2000/svg">
<path d="M14.5996 7.7918C14.8996 7.7918 15.5996 7.8918 15.8996 8.4918L17.3996 11.2918C17.5996 11.6918 17.8996 12.5918 17.8996 13.0918V17.2918H17.0996L16.7996 16.2918L16.6996 15.7918H16.1996H7.89961H7.39961L7.29961 16.2918L6.99961 17.2918H6.29961V13.0918C6.29961 12.5918 6.49961 11.6918 6.79961 11.2918L8.29961 8.4918C8.69961 7.8918 9.29961 7.7918 9.59961 7.7918H14.5996ZM14.5996 7.0918H9.59961C8.99961 7.0918 8.19961 7.2918 7.69961 8.0918L6.09961 10.8918C5.79961 11.3918 5.59961 12.3918 5.59961 12.9918V17.1918C5.59961 17.4918 5.89961 17.7918 6.19961 17.7918H7.09961C7.39961 17.7918 7.59961 17.5918 7.69961 17.3918L7.99961 16.2918H16.2996L16.5996 17.3918C16.6996 17.5918 16.8996 17.7918 17.1996 17.7918H17.9996C18.2996 17.7918 18.5996 17.4918 18.5996 17.1918V12.9918C18.5996 12.3918 18.3996 11.3918 18.0996 10.8918L16.4996 8.0918C15.9996 7.3918 15.1996 7.0918 14.5996 7.0918Z" fill="currentColor"/>
<path d="M2.79961 17.3918H1.99961C1.49961 17.3918 1.09961 16.9918 1.09961 16.4918V12.6918C1.09961 12.0918 1.29961 11.1918 1.59961 10.6918L2.99961 8.1918C3.39961 7.4918 4.09961 7.0918 4.99961 7.0918H7.29961V7.7918H4.99961C4.59961 7.7918 3.99961 7.8918 3.59961 8.4918L2.19961 10.9918C1.99961 11.4918 1.79961 12.2918 1.79961 12.7918V16.5918C1.79961 16.6918 1.89961 16.7918 1.99961 16.7918H2.79961C2.89961 16.7918 2.99961 16.6918 2.99961 16.6918L3.29961 15.4918H4.99961V16.1918H3.79961L3.59961 16.8918C3.49961 17.1918 3.19961 17.3918 2.79961 17.3918Z" fill="currentColor"/>
<path d="M22.0998 17.3914H21.2998C20.8998 17.3914 20.5998 17.0914 20.4998 16.7914L20.2998 15.9914H19.0998V15.2914H20.7998L21.0998 16.4914C21.0998 16.5914 21.1998 16.6914 21.2998 16.6914H22.0998C22.1998 16.6914 22.2998 16.5914 22.2998 16.4914V12.6914C22.2998 12.1914 22.0998 11.3914 21.8998 10.9914L20.4998 8.49141C20.0998 7.89141 19.4998 7.79141 19.0998 7.79141H16.7998V7.19141H19.0998C19.8998 7.19141 20.5998 7.59141 20.9998 8.19141L22.3998 10.6914C22.6998 11.1914 22.8998 12.0914 22.8998 12.6914V16.4914C22.9998 16.9914 22.5998 17.3914 22.0998 17.3914Z" fill="currentColor"/>
<path d="M12.1994 13.092C13.3994 13.092 13.9994 13.092 14.2994 13.092C14.2994 13.292 14.2994 13.492 14.2994 13.492C14.1994 13.492 14.1994 13.492 14.0994 13.492C13.5994 13.492 12.9994 13.592 12.3994 13.592C12.2994 13.592 12.2994 13.592 12.1994 13.592C12.0994 13.592 12.0994 13.592 11.9994 13.592C11.3994 13.592 10.7994 13.492 10.2994 13.492C10.1994 13.492 10.1994 13.492 10.0994 13.492C10.0994 13.392 10.0994 13.192 10.0994 13.092C10.1994 13.092 10.8994 13.092 12.1994 13.092ZM12.1994 12.392C11.5994 12.392 9.89941 12.392 9.79941 12.392C9.59941 12.392 9.39941 12.392 9.39941 12.692C9.39941 13.092 9.49941 13.492 9.49941 13.492C9.49941 13.492 9.49941 13.992 9.99941 13.992C10.3994 13.992 11.2994 14.092 12.0994 14.092C12.1994 14.092 12.1994 14.092 12.2994 14.092C12.3994 14.092 12.3994 14.092 12.4994 14.092C13.2994 14.092 14.1994 13.992 14.5994 13.992C14.9994 13.992 15.0994 13.492 15.0994 13.492C15.0994 13.492 15.1994 12.992 15.1994 12.692C15.1994 12.292 14.9994 12.392 14.7994 12.392C14.3994 12.392 12.6994 12.392 12.1994 12.392Z" fill="currentColor"/>
<path d="M1.99961 10.7918L0.699609 10.5918C0.299609 10.4918 0.0996094 10.1918 0.0996094 9.8918C0.0996094 9.5918 0.399609 9.2918 0.699609 9.1918L1.39961 9.0918C1.59961 9.0918 1.79961 9.0918 1.89961 9.1918C1.99961 9.2918 2.09961 9.4918 2.09961 9.6918V10.2918L1.99961 10.7918ZM1.49961 9.7918L0.799609 9.8918C0.799609 9.8918 0.699609 9.8918 0.699609 9.9918C0.699609 9.9918 0.699609 9.9918 0.799609 9.9918L1.49961 10.0918V9.7918Z" fill="currentColor"/>
<path d="M6.49961 10.7918L5.19961 10.5918C4.79961 10.4918 4.59961 10.1918 4.59961 9.8918C4.59961 9.5918 4.89961 9.2918 5.19961 9.1918L5.89961 9.0918C6.09961 9.0918 6.29961 9.0918 6.39961 9.1918C6.49961 9.2918 6.59961 9.4918 6.59961 9.6918V10.2918L6.49961 10.7918ZM5.99961 9.7918L5.29961 9.8918C5.29961 9.8918 5.19961 9.8918 5.19961 9.9918C5.19961 9.9918 5.19961 9.9918 5.29961 9.9918L5.99961 10.0918V9.7918Z" fill="currentColor"/>
<path d="M17.3992 10.7918L17.2992 10.3918H17.1992V9.79181C17.1992 9.59181 17.2992 9.39181 17.3992 9.29181C17.4992 9.19181 17.6992 9.09181 17.8992 9.19181L18.5992 9.29181C18.9992 9.29181 19.1992 9.69181 19.1992 9.99181C19.1992 10.2918 18.8992 10.5918 18.5992 10.6918L17.3992 10.7918ZM17.8992 9.79181V10.0918L18.5992 9.99181C18.5992 9.99181 18.6992 9.99181 18.6992 9.89181C18.6992 9.89181 18.6992 9.89181 18.5992 9.89181L17.8992 9.79181Z" fill="currentColor"/>
<path d="M21.9994 10.7918V10.3918H21.8994V9.79181C21.8994 9.59181 21.9994 9.39181 22.0994 9.29181C22.1994 9.19181 22.3994 9.09181 22.5994 9.19181L23.2994 9.29181C23.6994 9.29181 23.8994 9.69181 23.8994 9.99181C23.8994 10.2918 23.5994 10.5918 23.2994 10.6918L21.9994 10.7918ZM22.5994 9.79181V10.0918L23.2994 9.99181C23.2994 9.99181 23.3994 9.99181 23.3994 9.89181C23.3994 9.89181 23.3994 9.89181 23.2994 9.89181L22.5994 9.79181Z" fill="currentColor"/>
<path d="M8.7 13.1926C8.6 13.1926 7.2 12.9926 7 12.9926L7.2 12.3926C7.3 12.3926 8.6 12.5926 8.7 12.5926V13.1926Z" fill="currentColor"/>
<path d="M6.77865 12.0634L6.75684 13.3633L7.45677 13.375L7.47858 12.0752L6.77865 12.0634Z" fill="currentColor"/>
<path d="M15.5996 13.191V12.491C15.6996 12.491 16.9996 12.291 17.0996 12.291L17.2996 12.891C17.0996 13.091 15.6996 13.191 15.5996 13.191Z" fill="currentColor"/>
<path d="M17.49 12.0865L16.79 12.0977L16.8107 13.3975L17.5106 13.3864L17.49 12.0865Z" fill="currentColor"/>
</svg>
