<svg width="24" height="25" viewBox="0 0 24 25" fill="none" xmlns="http://www.w3.org/2000/svg">
<g clip-path="url(#clipmarketselector)">
<path d="M14.4 22.9926C15 22.2926 15.5 21.2926 15.9 20.0926C17.9 19.6926 19.7 19.0926 21.1 18.1926C19.6 20.6926 17.2 22.3926 14.4 22.9926ZM2.9 18.3926C4.2 19.1926 6 19.7926 8 20.1926C8.4 21.3926 9 22.2926 9.5 23.0926C6.8 22.3926 4.4 20.6926 2.9 18.3926ZM5.9 3.39258C6.5 3.79258 7.3 4.09258 8.2 4.29258C7.8 5.29258 7.5 6.49258 7.2 7.69258C5.3 7.39258 3.8 6.79258 3.1 6.19258C3.8 5.09258 4.8 4.19258 5.9 3.39258ZM21 6.29258C20.2 6.89258 18.8 7.39258 16.8 7.79258C16.6 6.49258 16.2 5.39258 15.8 4.29258C16.7 4.09258 17.5 3.79258 18.1 3.39258C19.2 4.19258 20.2 5.19258 21 6.29258ZM22.8 10.6926C21.9 11.9926 19.9 12.9926 17.2 13.5926C17.2 13.1926 17.2 12.7926 17.2 12.3926C17.2 11.0926 17.1 9.89258 17 8.79258C19 8.49258 20.6 7.89258 21.6 7.19258C22.2 8.29258 22.6 9.49258 22.8 10.6926ZM12.1 9.19258C13.4 9.19258 14.7 9.09258 15.9 8.99258C16 10.0926 16.1 11.1926 16.1 12.3926C16.1 12.8926 16.1 13.2926 16.1 13.7926C14.8 13.9926 13.5 14.0926 12 14.0926C10.6 14.0926 9.2 13.9926 8 13.7926C8 13.2926 8 12.8926 8 12.3926C8 11.1926 8.1 10.0926 8.2 8.99258C9.4 9.19258 10.7 9.19258 12.1 9.19258ZM12 4.69258C13 4.69258 13.9 4.59258 14.7 4.49258C15.1 5.49258 15.5 6.69258 15.7 7.89258C14.6 7.99258 13.4 8.09258 12.1 8.09258C10.7 8.09258 9.5 7.99258 8.3 7.89258C8.5 6.59258 8.9 5.49258 9.3 4.49258C10.1 4.59258 11 4.69258 12 4.69258ZM14.4 1.79258C15.3 1.99258 16.2 2.29258 17 2.69258C16.5 2.89258 16 3.09258 15.4 3.19258C15.1 2.69258 14.8 2.19258 14.4 1.79258ZM8.7 3.19258C8 3.09258 7.5 2.99258 7 2.69258C7.8 2.29258 8.6 1.99258 9.5 1.79258C9.2 2.19258 8.9 2.69258 8.7 3.19258ZM12 1.49258C12.7 1.49258 13.5 2.19258 14.2 3.39258C13.5 3.49258 12.8 3.59258 12 3.59258C11.2 3.59258 10.5 3.59258 9.8 3.49258C10.5 2.19258 11.3 1.49258 12 1.49258ZM2.5 7.19258C3.5 7.89258 5.1 8.49258 7 8.79258C6.8 9.89258 6.8 11.1926 6.8 12.3926C6.8 12.7926 6.8 13.1926 6.8 13.5926C4.2 12.9926 2.1 11.9926 1.2 10.6926C1.4 9.49258 1.9 8.29258 2.5 7.19258ZM1.6 15.6926C1.3 14.6926 1.1 13.5926 1.1 12.3926C1.1 12.2926 1.1 12.2926 1.1 12.1926C2.4 13.2926 4.4 14.1926 6.9 14.6926C7 16.1926 7.3 17.5926 7.6 18.8926C4.5 18.2926 2.3 16.9926 1.6 15.6926ZM12.2 19.3926C11 19.3926 9.9 19.2926 8.9 19.1926C8.5 17.8926 8.2 16.4926 8 14.9926C9.2 15.1926 10.6 15.2926 12 15.2926C13.4 15.2926 14.7 15.1926 16 14.9926C15.9 16.4926 15.6 17.9926 15.2 19.1926C14.2 19.2926 13.2 19.3926 12.2 19.3926ZM12 23.2926C11.1 23.2926 10.1 22.1926 9.3 20.4926V20.3926C10.2 20.4926 11.2 20.5926 12.2 20.5926C13 20.5926 13.9 20.4926 14.7 20.4926V20.5926C13.9 22.2926 12.9 23.2926 12 23.2926ZM22.3 15.8926C21.3 17.0926 19.3 18.3926 16.3 18.9926C16.7 17.6926 16.9 16.2926 17 14.7926C19.5 14.2926 21.5 13.3926 22.8 12.2926C22.8 12.3926 22.8 12.3926 22.8 12.4926C22.9 13.5926 22.7 14.7926 22.3 15.8926ZM12 0.392578C5.4 0.392578 0 5.79258 0 12.3926C0 13.6926 0.2 14.9926 0.6 16.0926C2.2 20.8926 6.7 24.3926 12 24.3926C18.6 24.3926 24 18.9926 24 12.3926C24 5.79258 18.6 0.392578 12 0.392578Z" fill="currentColor"/>
</g>
<defs>
<clipPath id="clipmarketselector">
<rect width="24" height="24" fill="white" transform="translate(0 0.392578)"/>
</clipPath>
</defs>
</svg>
