<svg width="24" height="25" viewBox="0 0 24 25" fill="none" xmlns="http://www.w3.org/2000/svg">
<g clip-path="url(#clipsteeringwheel)">
<path d="M12 24.3926C5.4 24.3926 0 18.9926 0 12.3926C0 5.79258 5.4 0.392578 12 0.392578C18.6 0.392578 24 5.79258 24 12.3926C24 18.9926 18.6 24.3926 12 24.3926ZM12 1.29258C5.8 1.29258 0.8 6.29258 0.8 12.4926C0.8 18.6926 5.8 23.6926 12 23.6926C18.2 23.6926 23.2 18.6926 23.2 12.4926C23.2 6.29258 18.2 1.29258 12 1.29258ZM13.5 22.1926L13.6 21.5926C13.6 21.4926 13.6 21.4926 13.6 21.3926V19.3926H14.4C15.6 19.3926 16.6 18.5926 16.7 17.4926L16.8 16.3926H20H20.1L20.9 16.2926L20.6 16.9926C19.2 19.5926 16.8 21.3926 13.9 22.0926L13.5 22.1926ZM14.5 20.2926V21.1926C16.7 20.5926 18.5 19.1926 19.7 17.2926H17.7V17.6926C17.4 19.0926 16.1 20.2926 14.5 20.2926ZM10.5 22.1926L9.9 22.0926C7 21.4926 4.6 19.5926 3.2 17.0926L2.8 16.3926L3.7 16.4926H3.8H7L7.2 17.4926C7.3 18.5926 8.3 19.4926 9.5 19.4926H10.3V21.4926C10.3 21.5926 10.3 21.5926 10.3 21.6926L10.5 22.1926ZM4.3 17.2926C5.5 19.1926 7.4 20.5926 9.5 21.1926V20.2926C7.9 20.2926 6.5 19.1926 6.3 17.6926V17.2926H4.3ZM21.9 12.6926H21.5H17.5V12.2926C17.5 11.7926 17.3 11.1926 16.9 10.7926C16.5 10.2926 15.8 10.0926 15.1 10.0926H8.9C8.2 10.0926 7.6 10.3926 7.1 10.7926C6.7 11.1926 6.5 11.6926 6.5 12.2926V12.6926H2.1L2 12.2926C2.2 6.89258 6.7 2.49258 12 2.49258C17.3 2.49258 21.8 6.79258 21.9 12.1926V12.6926ZM18.3 11.7926H21.1C20.8 7.09258 16.8 3.29258 12 3.29258C7.2 3.29258 3.3 7.09258 2.9 11.7926H5.7C5.8 11.1926 6 10.5926 6.5 10.0926C7.1 9.49258 8 9.09258 8.9 9.09258H15.1C16 9.09258 16.9 9.49258 17.5 10.0926C17.9 10.5926 18.2 11.1926 18.3 11.7926Z" fill="currentColor"/>
<path d="M13.1998 17.6922H10.7998C9.89984 17.6922 9.09984 16.9922 8.99984 16.0922L8.69984 13.3922C8.59984 12.8922 8.79984 12.3922 9.09984 11.9922C9.49984 11.6922 9.99984 11.4922 10.4998 11.4922H13.4998C13.9998 11.4922 14.4998 11.6922 14.7998 12.0922C15.0998 12.4922 15.2998 12.9922 15.1998 13.4922L14.9998 16.1922C14.8998 17.0922 14.0998 17.6922 13.1998 17.6922ZM10.4998 12.2922C10.1998 12.2922 9.99984 12.3922 9.79984 12.5922C9.59984 12.7922 9.49984 13.0922 9.59984 13.2922L9.89984 15.9922C9.99984 16.4922 10.3998 16.7922 10.7998 16.7922H13.1998C13.6998 16.7922 14.0998 16.3922 14.0998 15.9922L14.3998 13.2922C14.3998 12.9922 14.2998 12.7922 14.1998 12.5922C13.9998 12.3922 13.7998 12.2922 13.4998 12.2922H10.4998Z" fill="currentColor"/>
</g>
<defs>
<clipPath id="clipsteeringwheel">
<rect width="24" height="24" fill="white" transform="translate(0 0.392578)"/>
</clipPath>
</defs>
</svg>
