<svg width="24" height="25" viewBox="0 0 24 25" fill="none" xmlns="http://www.w3.org/2000/svg">
<g clip-path="url(#cliplistview)">
<path d="M24.0002 3.99219H6.7002V4.89219H24.0002V3.99219Z" fill="currentColor"/>
<path d="M2 5.59219C1.4 5.59219 0.9 5.09219 0.9 4.49219C0.9 3.89219 1.4 3.39219 2 3.39219C2.6 3.39219 3.1 3.89219 3.1 4.49219C3.1 5.09219 2.6 5.59219 2 5.59219ZM2 2.49219C0.9 2.49219 0 3.39219 0 4.49219C0 5.59219 0.9 6.49219 2 6.49219C3.1 6.49219 4 5.59219 4 4.49219C4 3.39219 3.1 2.49219 2 2.49219Z" fill="currentColor"/>
<path d="M24.0002 11.8926H6.7002V12.7926H24.0002V11.8926Z" fill="currentColor"/>
<path d="M2 13.393C1.4 13.393 0.9 12.893 0.9 12.293C0.9 11.693 1.4 11.193 2 11.193C2.6 11.193 3.1 11.693 3.1 12.293C3.1 12.893 2.6 13.393 2 13.393ZM2 10.293C0.9 10.293 0 11.193 0 12.293C0 13.393 0.9 14.293 2 14.293C3.1 14.293 4 13.393 4 12.293C4 11.193 3.1 10.293 2 10.293Z" fill="currentColor"/>
<path d="M24.0002 19.6914H6.7002V20.5914H24.0002V19.6914Z" fill="currentColor"/>
<path d="M2 21.2914C1.4 21.2914 0.9 20.7914 0.9 20.1914C0.9 19.5914 1.4 19.0914 2 19.0914C2.6 19.0914 3.1 19.5914 3.1 20.1914C3.1 20.7914 2.6 21.2914 2 21.2914ZM2 18.1914C0.9 18.1914 0 19.0914 0 20.1914C0 21.2914 0.9 22.1914 2 22.1914C3.1 22.1914 4 21.2914 4 20.1914C4 19.0914 3.1 18.1914 2 18.1914Z" fill="currentColor"/>
</g>
<defs>
<clipPath id="cliplistview">
<rect width="24" height="23.9" fill="white" transform="translate(0 0.392578)"/>
</clipPath>
</defs>
</svg>
