<?xml version="1.0" encoding="utf-8"?>
<!-- Generator: Adobe Illustrator 26.1.0, SVG Export Plug-In . SVG Version: 6.00 Build 0)  -->
<svg version="1.1" id="Layer_1" xmlns="http://www.w3.org/2000/svg" xmlns:xlink="http://www.w3.org/1999/xlink" x="0px" y="0px"
	 viewBox="0 0 8 8" style="enable-background:new 0 0 8 8;" xml:space="preserve">
<style type="text/css">
	.st0{fill-rule:evenodd;clip-rule:evenodd;fill:#707070;}
</style>
<path class="st0" d="M1.1,0.1C1,0,0.7,0,0.5,0.1c-0.2,0.2-0.2,0.5,0,0.7l2.9,3L0.1,7.2C0,7.4,0,7.7,0.1,7.9C0.3,8,0.6,8,0.8,7.9
	L4,4.5l3.2,3.3C7.4,8,7.7,8,7.9,7.9C8,7.7,8,7.4,7.9,7.2L4.7,3.8l2.9-3c0.2-0.2,0.2-0.5,0-0.7C7.3,0,7,0,6.9,0.1L4,3.1L1.1,0.1z"/>
</svg>
