<svg width="16" height="16" viewBox="0 0 16 16" fill="none" xmlns="http://www.w3.org/2000/svg">
    <path d="M8.02888 0C3.58123 0 0 3.58123 0 8.02888C0 12.4765 3.58123 16.0578 8.02888 16.0578C12.4765 16.0578 16.0578 12.4765 16.0578 8.02888C16 3.58123 12.4188 0 8.02888 0ZM8.02888 0.750903C12.0144 0.750903 15.3069 3.98556 15.3069 8.02888C15.3069 12.0144 12.0722 15.3069 8.02888 15.3069C4.04332 15.3069 0.750903 12.0722 0.750903 8.02888C0.750903 3.98556 3.98556 0.750903 8.02888 0.750903Z"
          fill="currentColor"/>
    <path d="M13.0545 3.00391L5.94976 5.94975L3.00391 13.0544L10.1086 10.1086L13.0545 3.00391ZM11.6682 4.33243L9.53098 9.47322L4.39019 11.6104L6.52737 6.46961L11.6682 4.33243Z"
          fill="currentColor"/>
    <path d="M8.02857 6.75781C7.33543 6.75781 6.75781 7.33543 6.75781 8.02857C6.75781 8.72171 7.33543 9.29933 8.02857 9.29933C8.72171 9.29933 9.29933 8.72171 9.29933 8.02857C9.24157 7.33543 8.72171 6.75781 8.02857 6.75781ZM8.02857 7.50871C8.31738 7.50871 8.54843 7.73976 8.54843 8.02857C8.54843 8.31738 8.31738 8.54843 8.02857 8.54843C7.73976 8.54843 7.50872 8.31738 7.50872 8.02857C7.50872 7.73976 7.73976 7.50871 8.02857 7.50871Z"
          fill="currentColor"/>
</svg>
