<svg width="24" height="25" viewBox="0 0 24 25" fill="none" xmlns="http://www.w3.org/2000/svg">
<path d="M18.4998 7.69219H17.6998V2.79219H6.5998V7.69219H5.7998V1.99219H18.4998V7.69219Z" fill="currentColor"/>
<path d="M21.1002 11.593C20.3002 11.593 19.7002 10.993 19.7002 10.193C19.7002 9.39297 20.3002 8.79297 21.1002 8.79297C21.9002 8.79297 22.5002 9.39297 22.5002 10.193C22.5002 10.993 21.9002 11.593 21.1002 11.593ZM21.1002 9.59297C20.7002 9.59297 20.5002 9.79297 20.5002 10.193C20.5002 10.593 20.7002 10.793 21.1002 10.793C21.5002 10.793 21.7002 10.593 21.7002 10.193C21.7002 9.79297 21.5002 9.59297 21.1002 9.59297Z" fill="currentColor"/>
<path d="M18.4998 22.893H5.7998V13.793H18.3998L18.4998 22.893ZM6.5998 22.093H17.5998V14.593H6.5998V22.093Z" fill="currentColor"/>
<path d="M18.4998 22.893H5.7998V13.793H18.3998L18.4998 22.893ZM6.5998 22.093H17.5998V14.593H6.5998V22.093Z" fill="currentColor"/>
<path d="M22.4 18.293H18.1V17.493H22.4C22.8 17.493 23.2 17.093 23.2 16.693V8.89297C23.2 8.49297 22.8 8.09297 22.4 8.09297H1.6C1.2 8.09297 0.8 8.49297 0.8 8.89297V16.593C0.8 16.993 1.2 17.393 1.6 17.393H6.2V18.193H1.6C0.7 18.293 0 17.493 0 16.593V8.89297C0 7.99297 0.7 7.29297 1.6 7.29297H22.4C23.3 7.29297 24 7.99297 24 8.89297V16.593C24 17.493 23.3 18.293 22.4 18.293Z" fill="currentColor"/>
</svg>
