<svg width="24" height="24" viewBox="0 0 24 24" fill="none" xmlns="http://www.w3.org/2000/svg">
<g clip-path="url(#clipinsurance)">
<path d="M10.5 16.0004L6 11.6004L6.6 10.9004L10.5 14.8004L17.4 7.90039L18 8.60039L10.5 16.0004Z" fill="currentColor"/>
<path d="M20.5998 0.900391C21.5998 0.900391 22.3998 1.70039 22.3998 2.70039V5.60039C22.3998 9.30039 21.3998 12.9004 19.3998 16.1004C17.5998 19.0004 14.9998 21.4004 11.9998 23.1004C8.9998 21.5004 6.3998 19.0004 4.5998 16.1004C2.5998 13.0004 1.5998 9.30039 1.5998 5.60039V2.60039C1.5998 1.60039 2.3998 0.800391 3.3998 0.800391L20.5998 0.900391ZM20.5998 -0.0996094H3.3998C1.9998 -0.0996094 0.799805 1.10039 0.799805 2.60039V5.50039C0.799805 13.5004 5.3998 20.5004 11.9998 23.9004C18.6998 20.5004 23.1998 13.5004 23.1998 5.50039V2.60039C23.1998 1.10039 21.9998 -0.0996094 20.5998 -0.0996094Z" fill="currentColor"/>
</g>
<defs>
<clipPath id="clipinsurance">
<rect width="24" height="23.9" fill="white"/>
</clipPath>
</defs>
</svg>
