<svg width="24" height="25" viewBox="0 0 24 25" fill="none" xmlns="http://www.w3.org/2000/svg">
<g clip-path="url(#clipemission)">
<path d="M12 1.28884C18.2 1.28884 23.2 6.26809 23.2 12.4424C23.2 18.6166 18.2 23.5959 12 23.5959C5.8 23.5959 0.8 18.6166 0.8 12.4424C0.8 6.26809 5.8 1.28884 12 1.28884ZM12 0.392578C5.4 0.392578 0 5.77017 0 12.3428C0 18.9154 5.4 24.293 12 24.293C18.6 24.293 24 18.9154 24 12.3428C24 5.77017 18.6 0.392578 12 0.392578Z" fill="currentColor"/>
</g>
<path d="M11.0933 13.7262C10.9264 14.1913 10.6635 14.5477 10.3046 14.7955C9.94561 15.0432 9.50577 15.167 8.98503 15.167C8.51991 15.167 8.10282 15.0584 7.73375 14.841C7.36974 14.6185 7.08662 14.3025 6.8844 13.893C6.68217 13.4835 6.58105 13.0108 6.58105 12.4749C6.58105 11.939 6.68217 11.4688 6.8844 11.0644C7.09168 10.6549 7.38238 10.3363 7.7565 10.1088C8.13062 9.88133 8.54013 9.76758 8.98503 9.76758C9.45521 9.76758 9.86978 9.88639 10.2287 10.124C10.5877 10.3616 10.8531 10.6928 11.025 11.1174L10.4335 11.3525C10.3071 11.034 10.115 10.7863 9.85714 10.6093C9.5993 10.4324 9.30354 10.3439 8.96986 10.3439C8.64125 10.3439 8.34549 10.4324 8.08259 10.6093C7.82475 10.7812 7.62505 11.029 7.48349 11.3525C7.34193 11.671 7.27116 12.0426 7.27116 12.4673C7.27116 12.897 7.34193 13.2737 7.48349 13.5973C7.63011 13.9158 7.83486 14.161 8.09776 14.3329C8.36066 14.4997 8.66147 14.5831 9.0002 14.5831C9.37432 14.5831 9.68777 14.4946 9.94056 14.3177C10.1984 14.1407 10.388 13.8829 10.5093 13.5442L11.0933 13.7262Z" fill="currentColor"/>
<path d="M16.8877 12.4597C16.8877 12.9906 16.7815 13.4633 16.5691 13.8778C16.3619 14.2874 16.0686 14.6059 15.6895 14.8334C15.3103 15.0558 14.8806 15.167 14.4003 15.167C13.9048 15.167 13.47 15.0558 13.0959 14.8334C12.7218 14.6109 12.4336 14.2949 12.2314 13.8854C12.0291 13.4759 11.928 13.0057 11.928 12.4749C11.928 11.944 12.0317 11.4739 12.239 11.0644C12.4513 10.6498 12.7471 10.3313 13.1262 10.1088C13.5054 9.88133 13.9351 9.76758 14.4154 9.76758C14.9058 9.76758 15.3381 9.8788 15.7122 10.1013C16.0914 10.3237 16.3821 10.6397 16.5843 11.0492C16.7865 11.4587 16.8877 11.9289 16.8877 12.4597ZM16.1976 12.4673C16.1976 12.0426 16.1242 11.671 15.9776 11.3525C15.831 11.029 15.6212 10.7812 15.3482 10.6093C15.0802 10.4324 14.7668 10.3439 14.4078 10.3439C14.0489 10.3439 13.7329 10.4299 13.4599 10.6018C13.192 10.7737 12.9847 11.0214 12.8381 11.345C12.6914 11.6635 12.6181 12.0376 12.6181 12.4673C12.6181 12.892 12.6889 13.2661 12.8305 13.5897C12.9771 13.9082 13.1844 14.1534 13.4523 14.3253C13.7253 14.4972 14.0438 14.5831 14.4078 14.5831C14.7668 14.5831 15.0802 14.4997 15.3482 14.3329C15.6212 14.161 15.831 13.9132 15.9776 13.5897C16.1242 13.2661 16.1976 12.892 16.1976 12.4673Z" fill="currentColor"/>
<path d="M19.4194 16.168H17.2803V15.8365C17.5156 15.6472 17.7193 15.4822 17.8915 15.3416C18.0636 15.201 18.21 15.0776 18.3305 14.9714C18.4539 14.8624 18.5543 14.7677 18.6318 14.6873C18.7093 14.6041 18.7695 14.5281 18.8126 14.4592C18.8556 14.3904 18.8843 14.3244 18.8986 14.2612C18.9159 14.1952 18.9245 14.1249 18.9245 14.0503C18.9245 13.9355 18.9001 13.8351 18.8513 13.749C18.8054 13.6629 18.7365 13.597 18.6447 13.551C18.5529 13.5051 18.4438 13.4822 18.3176 13.4822C18.1971 13.4822 18.0923 13.5051 18.0034 13.551C17.9173 13.597 17.8499 13.6629 17.8011 13.749C17.7523 13.8322 17.7279 13.9241 17.7279 14.0245C17.7279 14.0876 17.7322 14.1508 17.7408 14.2139C17.7523 14.2741 17.7652 14.3244 17.7796 14.3645H17.4051C17.385 14.3244 17.3692 14.2756 17.3577 14.2182C17.3491 14.1608 17.3448 14.1005 17.3448 14.0374C17.3448 13.8739 17.3864 13.7261 17.4697 13.5941C17.5529 13.4621 17.6691 13.3588 17.8183 13.2842C17.9704 13.2067 18.1411 13.168 18.3305 13.168C18.5342 13.168 18.7093 13.2038 18.8556 13.2756C19.0048 13.3444 19.1182 13.4449 19.1956 13.5769C19.276 13.7089 19.3161 13.8609 19.3161 14.0331C19.3161 14.1278 19.3075 14.2139 19.2903 14.2914C19.276 14.366 19.2473 14.442 19.2042 14.5195C19.1641 14.597 19.1067 14.6787 19.0321 14.7648C18.9603 14.848 18.8671 14.9413 18.7523 15.0446C18.6375 15.145 18.4998 15.2598 18.3391 15.3889C18.1813 15.518 17.9933 15.6658 17.7753 15.8322V15.8409C18.0765 15.8351 18.3821 15.8322 18.692 15.8322H19.4194V16.168Z" fill="currentColor"/>
<defs>
<clipPath id="clipemission">
<rect width="24" height="23.9" fill="white" transform="translate(0 0.392578)"/>
</clipPath>
</defs>
</svg>
