<svg width="24" height="25" viewBox="0 0 24 25" fill="none" xmlns="http://www.w3.org/2000/svg">
<g clip-path="url(#clipemergencyhelp)">
<path d="M23.9 10.5918C23.1 5.3918 19 1.2918 13.8 0.491797C12.6 0.291797 11.4 0.291797 10.2 0.491797C5 1.2918 0.9 5.3918 0.1 10.5918C0 11.1918 0 11.7918 0 12.3918C0 12.9918 0 13.5918 0.1 14.1918C0.9 19.3918 5 23.4918 10.2 24.2918C10.8 24.3918 11.4 24.3918 12 24.3918C12.6 24.3918 13.2 24.3918 13.8 24.2918C19 23.4918 23.1 19.3918 23.9 14.1918C24 13.5918 24 12.9918 24 12.3918C24 11.7918 24 11.1918 23.9 10.5918ZM20.7 5.5918L18.1 8.1918C17.6 7.4918 17 6.8918 16.3 6.3918L18.9 3.7918C19.6 4.3918 20.2 4.8918 20.7 5.5918ZM6 10.7918C6.5 8.6918 8.2 6.9918 10.3 6.3918C10.8 6.1918 11.4 6.1918 12 6.1918C15.4 6.1918 18.2 8.9918 18.2 12.3918C18.2 15.7918 15.4 18.5918 12 18.5918C8.6 18.5918 5.8 15.7918 5.8 12.3918C5.8 11.7918 5.8 11.2918 6 10.7918ZM10.3 1.4918C11.4 1.2918 12.5 1.2918 13.6 1.4918C15.2 1.6918 16.8 2.2918 18.1 3.1918L15.4 5.8918C14.4 5.3918 13.2 4.9918 12 4.9918C10.8 4.9918 9.6 5.2918 8.6 5.8918L5.9 3.1918C7.2 2.2918 8.7 1.6918 10.3 1.4918ZM5.2 3.6918L7.8 6.2918C7.1 6.7918 6.5 7.3918 6 8.0918L3.4 5.4918C3.9 4.8918 4.5 4.2918 5.2 3.6918ZM1 13.9918C0.9 13.4918 0.9 12.9918 0.9 12.3918C0.9 11.8918 0.9 11.2918 1 10.7918C1.3 9.1918 1.9 7.5918 2.8 6.2918L5.4 8.9918C4.9 9.9918 4.6 11.0918 4.6 12.3918C4.6 13.6918 4.9 14.8918 5.5 15.8918L2.8 18.4918C1.9 17.1918 1.2 15.5918 1 13.9918ZM3.4 19.2918L6 16.6918C6.5 17.3918 7.1 17.9918 7.8 18.4918L5.2 21.0918C4.5 20.4918 3.9 19.9918 3.4 19.2918ZM13.7 23.2918C12.6 23.4918 11.5 23.4918 10.4 23.2918C8.8 23.0918 7.2 22.4918 5.9 21.5918L8.6 18.8918C9.6 19.3918 10.7 19.6918 11.9 19.6918C13.2 19.6918 14.3 19.3918 15.4 18.7918L18.1 21.4918C16.9 22.3918 15.3 23.0918 13.7 23.2918ZM18.9 21.0918L16.2 18.3918C16.9 17.8918 17.5 17.2918 18 16.5918L20.7 19.2918C20.1 19.9918 19.6 20.5918 18.9 21.0918ZM23 14.0918C22.7 15.6918 22.1 17.2918 21.2 18.5918L18.5 15.8918C19.1 14.8918 19.4 13.6918 19.4 12.3918C19.4 11.1918 19.1 10.0918 18.6 9.0918L21.2 6.3918C22.1 7.6918 22.8 9.2918 23 10.8918C23.1 11.3918 23.1 11.9918 23.1 12.4918C23.1 12.9918 23.1 13.5918 23 14.0918Z" fill="currentColor"/>
</g>
<defs>
<clipPath id="clipemergencyhelp">
<rect width="24" height="24" fill="white" transform="translate(0 0.392578)"/>
</clipPath>
</defs>
</svg>
