<svg width="18" height="18" viewBox="0 0 18 18" fill="none" xmlns="http://www.w3.org/2000/svg">
<path fill-rule="evenodd" clip-rule="evenodd" d="M9 1.89258C4.85786 1.89258 1.5 5.25044 1.5 9.39258C1.5 13.5347 4.85786 16.8926 9 16.8926C13.1421 16.8926 16.5 13.5347 16.5 9.39258C16.5 5.25044 13.1421 1.89258 9 1.89258ZM0.5 9.39258C0.5 4.69816 4.30558 0.892578 9 0.892578C13.6944 0.892578 17.5 4.69816 17.5 9.39258C17.5 14.087 13.6944 17.8926 9 17.8926C4.30558 17.8926 0.5 14.087 0.5 9.39258Z" fill="currentColor"/>
<path fill-rule="evenodd" clip-rule="evenodd" d="M9 6.10938C9.27614 6.10938 9.5 6.33323 9.5 6.60938V14.2615C9.5 14.5377 9.27614 14.7615 9 14.7615C8.72386 14.7615 8.5 14.5377 8.5 14.2615V6.60938C8.5 6.33323 8.72386 6.10938 9 6.10938Z" fill="currentColor"/>
<path d="M9.00034 4.52216C9.38454 4.52216 9.69599 4.21071 9.69599 3.82651C9.69599 3.44231 9.38454 3.13086 9.00034 3.13086C8.61614 3.13086 8.30469 3.44231 8.30469 3.82651C8.30469 4.21071 8.61614 4.52216 9.00034 4.52216Z" fill="currentColor"/>
<path fill-rule="evenodd" clip-rule="evenodd" d="M9.00034 3.52216C8.83225 3.52216 8.69599 3.65842 8.69599 3.82651C8.69599 3.9946 8.83225 4.13086 9.00034 4.13086C9.16843 4.13086 9.30469 3.9946 9.30469 3.82651C9.30469 3.65842 9.16843 3.52216 9.00034 3.52216ZM9.69599 3.82651C9.69599 4.21071 9.38454 4.52216 9.00034 4.52216C8.61614 4.52216 8.30469 4.21071 8.30469 3.82651C8.30469 3.44231 8.61614 3.13086 9.00034 3.13086C9.38454 3.13086 9.69599 3.44231 9.69599 3.82651Z" fill="currentColor"/>
</svg>
