<svg width="24" height="25" viewBox="0 0 24 25" fill="none" xmlns="http://www.w3.org/2000/svg">
<g clip-path="url(#clipsupport)">
<path d="M16.3004 12.2922C18.2004 12.2922 19.7004 13.7922 19.7004 15.6922V23.5922H4.30039V15.6922C4.30039 13.7922 5.80039 12.2922 7.70039 12.2922H16.3004ZM16.3004 11.4922H7.70039C5.30039 11.4922 3.40039 13.3922 3.40039 15.7922V24.4922H20.5004V15.7922C20.5004 13.3922 18.6004 11.4922 16.3004 11.4922Z" fill="currentColor"/>
<path d="M12.0002 1.29258C13.9002 1.29258 15.4002 2.79258 15.4002 4.69258C15.4002 6.59258 13.9002 8.09258 12.0002 8.09258C10.1002 8.09258 8.6002 6.59258 8.6002 4.69258C8.6002 2.79258 10.1002 1.29258 12.0002 1.29258ZM12.0002 0.392578C9.6002 0.392578 7.7002 2.29258 7.7002 4.69258C7.7002 7.09258 9.6002 8.99258 12.0002 8.99258C14.4002 8.99258 16.3002 7.09258 16.3002 4.69258C16.3002 2.29258 14.4002 0.392578 12.0002 0.392578Z" fill="currentColor"/>
<path d="M16.8008 20.6918H13.7008V18.9918H16.8008V20.6918ZM17.6008 18.0918H12.8008V21.4918H17.6008V18.0918Z" fill="currentColor"/>
</g>
<defs>
<clipPath id="clipsupport">
<rect width="24" height="24" fill="white" transform="translate(0 0.392578)"/>
</clipPath>
</defs>
</svg>
