<svg width="24" height="24" viewBox="0 0 24 24" fill="none" xmlns="http://www.w3.org/2000/svg">
<g clip-path="url(#clipdirection)">
<path d="M12 0C5.35252 0 0 5.37184 0 12.0433C0 18.7148 5.35252 24.0866 12 24.0866C18.6475 24.0866 24 18.7148 24 12.0433C23.9137 5.37184 18.5612 0 12 0ZM12 1.12635C17.9568 1.12635 22.8777 5.97834 22.8777 12.0433C22.8777 18.0217 18.0432 22.9603 12 22.9603C6.04317 22.9603 1.1223 18.1083 1.1223 12.0433C1.1223 5.97834 5.95683 1.12635 12 1.12635Z" fill="currentColor"/>
<path d="M19.5817 4.50586L8.92463 8.92463L4.50586 19.5817L15.1629 15.1629L19.5817 4.50586ZM17.5023 6.49864L14.2965 14.2098L6.58528 17.4156L9.79106 9.70442L17.5023 6.49864Z" fill="currentColor"/>
<path d="M12.0429 10.1367C11.0031 10.1367 10.1367 11.0031 10.1367 12.0429C10.1367 13.0826 11.0031 13.949 12.0429 13.949C13.0826 13.949 13.949 13.0826 13.949 12.0429C13.8624 11.0031 13.0826 10.1367 12.0429 10.1367ZM12.0429 11.2631C12.4761 11.2631 12.8226 11.6096 12.8226 12.0429C12.8226 12.4761 12.4761 12.8226 12.0429 12.8226C11.6096 12.8226 11.2631 12.4761 11.2631 12.0429C11.2631 11.6096 11.6096 11.2631 12.0429 11.2631Z" fill="currentColor"/>
</g>
<defs>
<clipPath id="clipdirection">
<rect width="24" height="24" fill="white"/>
</clipPath>
</defs>
</svg>
