<svg width="25px" height="25px" xmlns="http://www.w3.org/2000/svg" fill="none" viewBox="0 0 40 40" preserveAspectRatio="xMinYMin meet">
    <path d="M9.95107 2.02C12.0611 2.02 14.0511 2.84 15.5411 4.34C17.6911 6.49 18.4111 9.63 17.4211 12.52L17.2111 13.12L17.6611 13.57L36.4111 32.32C37.3211 33.23 37.3211 34.71 36.4111 35.62L35.4911 36.54C35.0511 36.98 34.4611 37.22 33.8411 37.22C33.2211 37.22 32.6311 36.98 32.1911 36.54L13.3911 17.73L12.9511 17.29L12.3611 17.48C11.5711 17.73 10.7611 17.86 9.93107 17.86C7.82107 17.86 5.83107 17.04 4.34107 15.55C2.21107 13.42 1.50107 10.24 2.43107 7.45L6.78107 11.8C7.44107 12.46 8.33107 12.83 9.27107 12.83C10.2111 12.83 11.0911 12.46 11.7611 11.8C12.4211 11.14 12.7911 10.25 12.7911 9.31C12.7911 8.37 12.4211 7.49 11.7611 6.82L7.39107 2.44C8.21107 2.16 9.08107 2.02 9.95107 2.02ZM9.95107 1C8.46107 1 6.96107 1.37 5.62107 2.11L11.0411 7.53C12.0211 8.51 12.0211 10.09 11.0411 11.07C10.5511 11.56 9.91107 11.8 9.27107 11.8C8.63107 11.8 7.99107 11.56 7.50107 11.07L2.09107 5.66C0.241071 9.05 0.741071 13.39 3.61107 16.26C5.35107 18 7.64107 18.87 9.92107 18.87C10.8411 18.87 11.7711 18.73 12.6611 18.44L31.4711 37.25C32.1211 37.9 32.9811 38.23 33.8411 38.23C34.7011 38.23 35.5511 37.9 36.2111 37.25L37.1311 36.33C38.4411 35.02 38.4411 32.9 37.1311 31.59L18.3911 12.85C19.4711 9.72 18.7711 6.11 16.2711 3.61C14.5211 1.87 12.2311 1 9.95107 1Z" fill="currentColor"/>
</svg>