<svg width="24" height="25" viewBox="0 0 24 25" fill="none" xmlns="http://www.w3.org/2000/svg">
<g clip-path="url(#clipoffer)">
<path d="M3.69961 3.29258C3.99961 3.29258 4.19961 3.39258 4.29961 3.49258C4.49961 3.69258 4.59961 3.89258 4.59961 4.09258C4.59961 4.29258 4.49961 4.59258 4.29961 4.69258C4.19961 4.99258 3.99961 5.09258 3.69961 5.09258C3.49961 5.09258 3.19961 4.99258 3.09961 4.79258C2.89961 4.59258 2.79961 4.39258 2.79961 4.19258C2.79961 3.99258 2.89961 3.69258 3.09961 3.59258C3.19961 3.39258 3.49961 3.29258 3.69961 3.29258ZM3.69961 2.39258C3.29961 2.39258 2.79961 2.59258 2.49961 2.89258C1.79961 3.59258 1.79961 4.69258 2.49961 5.39258C2.79961 5.69258 3.29961 5.89258 3.69961 5.89258C4.09961 5.89258 4.59961 5.69258 4.89961 5.39258C5.59961 4.69258 5.59961 3.59258 4.89961 2.89258C4.59961 2.59258 4.19961 2.39258 3.69961 2.39258Z" fill="currentColor"/>
<path d="M11 1.29258L22.6 12.8926C23.3 13.5926 23.3 14.7926 22.6 15.4926L15 23.0926C14.7 23.3926 14.2 23.5926 13.7 23.5926C13.2 23.5926 12.7 23.3926 12.4 23.0926L0.8 11.3926V3.19258C0.8 2.69258 1 2.19258 1.4 1.79258C1.8 1.49258 2.3 1.29258 2.8 1.29258H11ZM11.3 0.392578H2.8C2 0.392578 1.3 0.692578 0.8 1.19258C0.3 1.79258 0 2.49258 0 3.19258V11.6926L11.9 23.5926C12.4 24.0926 13.1 24.3926 13.8 24.3926C14.5 24.3926 15.2 24.0926 15.7 23.5926L23.3 15.9926C24.3 14.9926 24.3 13.2926 23.3 12.1926L11.3 0.392578Z" fill="currentColor"/>
</g>
<defs>
<clipPath id="clipoffer">
<rect width="24" height="24" fill="white" transform="translate(0 0.392578)"/>
</clipPath>
</defs>
</svg>
