<svg width="24" height="25" viewBox="0 0 24 25" fill="none" xmlns="http://www.w3.org/2000/svg">
<path d="M22.7 5.59258H1.3C0.6 5.59258 0 4.99258 0 4.19258C0 3.39258 0.6 2.89258 1.3 2.89258H22.7C23.4 2.89258 24 3.49258 24 4.19258C24 4.89258 23.4 5.59258 22.7 5.59258Z" fill="currentColor"/>
<path d="M22.7 13.6918H1.3C0.6 13.6918 0 13.0918 0 12.3918C0 11.6918 0.6 11.0918 1.3 11.0918H22.7C23.4 11.0918 24 11.6918 24 12.3918C24 13.0918 23.4 13.6918 22.7 13.6918Z" fill="currentColor"/>
<path d="M22.7 21.893H1.3C0.6 21.893 0 21.293 0 20.593C0 19.893 0.6 19.293 1.3 19.293H22.7C23.4 19.293 24 19.893 24 20.593C24 21.293 23.4 21.893 22.7 21.893Z" fill="currentColor"/>
</svg>
