<svg width="24" height="24" viewBox="0 0 24 24" fill="none" xmlns="http://www.w3.org/2000/svg">
<path d="M20.4 19.3C20.2 17 18.3 15.2 16 15.2H8C5.7 15.2 3.7 17 3.6 19.3C1.9 17.3 0.9 14.8 0.9 12C0.9 5.9 5.9 0.8 12.1 0.8C18.2 0.8 23.3 5.8 23.3 12C23.2 14.8 22.1 17.4 20.4 19.3ZM4.4 20.2V19.6C4.4 17.7 6 16.1 8 16.1H16C18 16.1 19.6 17.7 19.6 19.7V20.3C17.6 22.1 14.9 23.3 12 23.3C9.1 23.2 6.4 22.1 4.4 20.2ZM12 0C5.4 0 0 5.4 0 11.9C0 18.4 5.4 23.9 12 23.9C18.6 23.9 24 18.5 24 11.9C24 5.3 18.6 0 12 0Z" fill="currentColor"/>
<path d="M11.9996 12.9004C9.99961 12.9004 8.39961 11.3004 8.39961 9.30039C8.39961 7.30039 9.99961 5.70039 11.9996 5.70039C13.9996 5.70039 15.5996 7.30039 15.5996 9.30039C15.5996 11.3004 13.9996 12.9004 11.9996 12.9004ZM11.9996 4.90039C9.59961 4.90039 7.59961 6.90039 7.59961 9.30039C7.59961 11.7004 9.59961 13.7004 11.9996 13.7004C14.3996 13.7004 16.3996 11.7004 16.3996 9.30039C16.3996 6.90039 14.3996 4.90039 11.9996 4.90039Z" fill="currentColor"/>
</svg>
