<svg width="24" height="25" viewBox="0 0 24 25" fill="none" xmlns="http://www.w3.org/2000/svg">
<path d="M22.3 7.59297C22 7.29297 20.8 6.39297 19.3 6.39297C18.6 6.39297 18 6.59297 17.3 6.89297H17.2L17 6.49297C15.9 4.19297 13.6 2.79297 11.1 2.79297C8 2.79297 5.4 4.89297 4.7 7.79297V7.89297H4.6C3.3 7.89297 2.1 8.39297 1.2 9.29297C0.4 10.193 0 11.293 0 12.493C0.2 16.793 2.7 17.093 5.4 17.093C5.5 17.093 5.7 17.093 5.8 17.093H6C6.2 17.093 6.4 17.093 6.6 17.093H8.3L7.6 16.293H4C1.8 16.293 0.7 14.393 0.7 12.393C0.7 10.293 2.4 8.59297 4.5 8.59297L5.2 8.69297L5.3 8.29297C5.8 5.59297 8.2 3.59297 11 3.59297C13.2 3.59297 15.2 4.79297 16.2 6.79297L17 8.19297L17.4 7.89297C18.1 7.49297 18.8 7.29297 19.5 7.29297C20.8 7.29297 21.7 8.19297 21.8 8.29297C22.7 9.09297 23.2 10.293 23.2 11.693C23.2 14.693 21.4 16.193 19.5 16.393H16.5L15.5 17.193L19.8 17.293C22.3 17.093 24 14.993 24 11.793C24 9.99297 23.4 8.59297 22.3 7.59297Z" fill="currentColor"/>
<path d="M8.49961 19.4937L7.29961 19.8937V18.5938H6.49961V19.8937L5.29961 19.4937L5.09961 20.1937L6.29961 20.5938L5.59961 21.5938L6.19961 22.0938L6.89961 21.0938L7.69961 22.0938L8.29961 21.5938L7.49961 20.5938L8.69961 20.1937L8.49961 19.4937Z" fill="currentColor"/>
<path d="M18.9 19.4937L17.7 19.8937V18.5938H16.9V19.8937L15.7 19.4937L15.5 20.1937L16.7 20.5938L16 21.5938L16.6 22.0938L17.3 21.0938L18.1 22.0938L18.7 21.5938L17.9 20.5938L19.2 20.1937L18.9 19.4937Z" fill="currentColor"/>
<path d="M13.6998 16.1926L12.4998 16.5926V15.3926H11.6998V16.5926L10.4998 16.1926L10.2998 16.9926L11.4998 17.3926L10.7998 18.3926L11.3998 18.7926L12.0998 17.7926L12.8998 18.7926L13.4998 18.3926L12.6998 17.3926L13.9998 16.9926L13.6998 16.1926Z" fill="currentColor"/>
</svg>
