<svg width="24" height="24" viewBox="0 0 24 24" fill="none" xmlns="http://www.w3.org/2000/svg">
<g clip-path="url(#clipcar)">
<path d="M12.1 12.5004C14.6 12.5004 15.7 12.5004 15.8 12.5004H15.9C15.9 13.0004 15.8 13.7004 15.8 13.7004C15.8 13.7004 15.8 14.0004 15.7 14.0004C15.5 14.0004 15.4 14.0004 15.1 14.0004C14.3 14.1004 13.3 14.2004 12.3 14.2004C12.2 14.2004 12.1 14.2004 12 14.2004C11.9 14.2004 11.8 14.2004 11.7 14.2004C10.8 14.2004 9.7 14.1004 8.9 14.0004C8.7 14.0004 8.5 14.0004 8.3 14.0004C8.2 14.0004 8.2 13.8004 8.2 13.7004C8.2 13.7004 8.1 13.1004 8.1 12.5004H8.2C8.4 12.5004 9.4 12.5004 11.9 12.5004H12.1ZM12.1 11.9004H12C11.1 11.9004 8.4 11.9004 8.2 12.0004C7.9 12.1004 7.5 12.0004 7.5 12.6004C7.5 13.2004 7.6 14.0004 7.6 14.0004C7.6 14.0004 7.7 14.8004 8.3 14.9004C9 15.0004 10.5 15.1004 11.7 15.1004C11.8 15.1004 11.9 15.1004 12 15.1004C12.1 15.1004 12.2 15.1004 12.3 15.1004C13.5 15.1004 15 14.9004 15.7 14.9004C16.4 14.8004 16.4 14.0004 16.4 14.0004C16.4 14.0004 16.5 13.2004 16.5 12.6004C16.5 12.0004 16.1 12.1004 15.8 12.0004C15.7 11.9004 13 11.9004 12.1 11.9004Z" fill="currentColor"/>
<path d="M16.0996 4.00039C16.9996 4.00039 18.0996 4.40039 18.4996 5.30039L20.9996 9.80039C21.3996 10.6004 21.7996 12.0004 21.7996 12.9004V19.7004C21.7996 19.9004 21.6996 20.0004 21.4996 20.0004H19.9996C19.8996 20.0004 19.7996 19.9004 19.6996 19.8004L19.2996 18.1004L19.1996 17.6004H18.6996H5.39961H4.89961L4.69961 18.1004L4.29961 19.8004C4.29961 19.9004 4.19961 20.0004 3.99961 20.0004H2.59961C2.39961 20.0004 2.29961 19.9004 2.29961 19.7004V12.9004C2.29961 12.0004 2.69961 10.6004 3.09961 9.80039L5.59961 5.30039C6.29961 4.20039 7.39961 4.00039 7.99961 4.00039H16.0996ZM16.0996 3.40039H7.99961C6.99961 3.40039 5.69961 3.80039 4.99961 5.00039L2.49961 9.50039C1.99961 10.4004 1.59961 11.9004 1.59961 12.9004V19.7004C1.59961 20.2004 1.99961 20.6004 2.49961 20.6004H3.99961C4.39961 20.6004 4.79961 20.3004 4.89961 19.9004V19.8004L5.29961 18.1004H18.5996L18.9996 19.8004V19.9004C19.0996 20.3004 19.4996 20.6004 19.8996 20.6004H21.3996C21.8996 20.6004 22.2996 20.2004 22.2996 19.7004V12.9004C22.2996 11.9004 21.8996 10.4004 21.3996 9.50039L18.8996 5.00039C18.3996 3.80039 17.0996 3.40039 16.0996 3.40039Z" fill="currentColor"/>
<path d="M21.1 9.10119L21 8.40119H21.1V7.40119C21.1 7.20119 21.2 7.00119 21.3 6.90119C21.4 6.80119 21.6 6.70119 21.8 6.80119L23.5 7.00119C23.8 7.00119 24.1 7.40119 24.1 7.70119V8.10119C24.1 8.40119 23.8 8.80119 23.5 8.80119L21.1 9.10119ZM21.7 7.40119V8.30119L23.3 8.10119V7.70119L21.7 7.40119Z" fill="currentColor"/>
<path d="M3 8.90117L0.7 8.60117C0.3 8.60117 0 8.30117 0 8.00117V7.60117C0 7.30117 0.3 7.00117 0.6 6.90117L2.3 6.70117C2.5 6.70117 2.7 6.70117 2.8 6.80117C3 7.00117 3 7.20117 3 7.30117V8.20117H3.1L3 8.90117ZM2.4 7.40117L0.7 7.60117V7.90117L2.4 8.10117V7.40117Z" fill="currentColor"/>
<path d="M17.5996 13.0004V12.3004H17.6996C17.8996 12.3004 18.3996 12.3004 19.1996 12.2004C19.8996 12.1004 20.1996 12.0004 20.4996 11.9004L20.6996 12.5004C20.4996 12.6004 19.9996 12.7004 19.2996 12.8004C18.3996 13.0004 17.8996 13.0004 17.5996 13.0004Z" fill="currentColor"/>
<path d="M20.8304 11.7659L20.1348 11.8438L20.2682 13.0363L20.9639 12.9585L20.8304 11.7659Z" fill="currentColor"/>
<path d="M6.50039 13C6.20039 13 5.70039 13 4.80039 12.9C4.10039 12.8 3.60039 12.7 3.40039 12.6L3.60039 12C3.80039 12.1 4.20039 12.2 4.90039 12.3C5.80039 12.4 6.20039 12.4 6.40039 12.4H6.50039V13Z" fill="currentColor"/>
<path d="M3.20142 11.7314L3.06738 12.9238L3.76297 13.002L3.89701 11.8096L3.20142 11.7314Z" fill="currentColor"/>
</g>
<defs>
<clipPath id="clipcar">
<rect width="24" height="24" fill="white"/>
</clipPath>
</defs>
</svg>
