<svg width="24" height="25" viewBox="0 0 24 25" fill="none" xmlns="http://www.w3.org/2000/svg">
<g clip-path="url(#clipsmartphone)">
<path d="M17.1004 1.29258C17.7004 1.29258 18.3004 1.79258 18.3004 2.49258V22.4926C18.3004 23.0926 17.8004 23.6926 17.1004 23.6926H6.90039C6.30039 23.6926 5.70039 23.1926 5.70039 22.4926V2.49258C5.70039 1.89258 6.20039 1.29258 6.90039 1.29258H17.1004ZM17.1004 0.392578H6.90039C5.80039 0.392578 4.90039 1.29258 4.90039 2.39258V22.3926C4.90039 23.4926 5.80039 24.3926 6.90039 24.3926H17.0004C18.1004 24.3926 19.0004 23.4926 19.0004 22.3926V2.39258C19.1004 1.29258 18.2004 0.392578 17.1004 0.392578Z" fill="currentColor"/>
<path d="M16.5002 19.1922H7.5002V4.39219H16.4002V19.1922H16.5002ZM17.3002 3.49219H6.7002V19.9922H17.3002V3.49219Z" fill="currentColor"/>
<path d="M12.0002 20.9922C11.5002 20.9922 11.2002 21.3922 11.2002 21.7922C11.2002 22.2922 11.6002 22.5922 12.0002 22.5922C12.5002 22.5922 12.8002 22.1922 12.8002 21.7922C12.8002 21.3922 12.5002 20.9922 12.0002 20.9922Z" fill="currentColor"/>
</g>
<defs>
<clipPath id="clipsmartphone">
<rect width="24" height="24" fill="white" transform="translate(0 0.392578)"/>
</clipPath>
</defs>
</svg>
