<svg width="16" height="16" viewBox="0 0 16 16" fill="none" xmlns="http://www.w3.org/2000/svg">
    <path fill-rule="evenodd" clip-rule="evenodd"
          d="M8 2.5C4.96243 2.5 2.5 4.96243 2.5 8C2.5 11.0376 4.96243 13.5 8 13.5C11.0376 13.5 13.5 11.0376 13.5 8C13.5 4.96243 11.0376 2.5 8 2.5ZM1.5 8C1.5 4.41015 4.41015 1.5 8 1.5C11.5899 1.5 14.5 4.41015 14.5 8C14.5 11.5899 11.5899 14.5 8 14.5C4.41015 14.5 1.5 11.5899 1.5 8Z"
          fill="currentColor"/>
    <path fill-rule="evenodd" clip-rule="evenodd"
          d="M11.3216 5.61716C11.533 5.79477 11.5605 6.11016 11.3829 6.32161L7.18285 11.3216C7.09157 11.4303 6.95842 11.495 6.81658 11.4997C6.67474 11.5044 6.53759 11.4487 6.43931 11.3463L4.63931 9.47128C4.44807 9.27207 4.45453 8.95556 4.65373 8.76432C4.85294 8.57308 5.16946 8.57954 5.36069 8.77875L6.77519 10.2522L10.6171 5.67842C10.7948 5.46697 11.1102 5.43955 11.3216 5.61716Z"
          fill="currentColor"/>
</svg>
