<svg width="24" height="24" viewBox="0 0 24 24" fill="none" xmlns="http://www.w3.org/2000/svg">
    <path fill-rule="evenodd" clip-rule="evenodd" d="M9.522 15.635L9.52125 8.84387L16.0057 12.2511L9.522 15.635ZM23.76 7.66708C23.76 7.66708 23.5252 6.0016 22.806 5.26818C21.8932 4.30515 20.8703 4.30062 20.4015 4.24472C17.043 4 12.0052 4 12.0052 4H11.9948C11.9948 4 6.957 4 3.5985 4.24472C3.129 4.30062 2.10675 4.30515 1.19325 5.26818C0.474 6.0016 0.24 7.66708 0.24 7.66708C0.24 7.66708 0 9.62336 0 11.5789V13.4128C0 15.3691 0.24 17.3246 0.24 17.3246C0.24 17.3246 0.474 18.9901 1.19325 19.7235C2.10675 20.6865 3.306 20.6563 3.84 20.7568C5.76 20.9426 12 21 12 21C12 21 17.043 20.9924 20.4015 20.7477C20.8703 20.6911 21.8932 20.6865 22.806 19.7235C23.5252 18.9901 23.76 17.3246 23.76 17.3246C23.76 17.3246 24 15.3691 24 13.4128V11.5789C24 9.62336 23.76 7.66708 23.76 7.66708Z" fill="currentColor"/>
</svg>
