<svg width="66" height="32" viewBox="0 0 66 32" fill="none" xmlns="http://www.w3.org/2000/svg">
    <path d="M33.373 21.7957V17.7268H37.3718V16.6745H33.373V12.6406H32.1804V16.6745H28.1816V17.7268H32.1804V21.7957H33.373Z" fill="currentColor"/>
    <path fill-rule="evenodd" clip-rule="evenodd" d="M5.15415 3.84495H3.69261C2.07824 3.84495 0.769531 5.15366 0.769531 6.76803V27.2296C0.769531 28.8439 2.07824 30.1526 3.69261 30.1526H15.3849C16.9993 30.1526 18.308 28.8439 18.308 27.2296V6.76803C18.308 5.15366 16.9993 3.84495 15.3849 3.84495H13.9234V3.11418C13.9234 1.9034 12.9418 0.921875 11.7311 0.921875H7.34645C6.13568 0.921875 5.15415 1.9034 5.15415 3.11418V3.84495ZM6.61568 3.84495H12.4618V3.11418C12.4618 2.71059 12.1347 2.38341 11.7311 2.38341H7.34645C6.94286 2.38341 6.61568 2.71059 6.61568 3.11418V3.84495ZM3.69231 5.30645C2.88512 5.30645 2.23077 5.96081 2.23077 6.76799V27.2295C2.23077 28.0367 2.88512 28.6911 3.69231 28.6911H15.3846C16.1918 28.6911 16.8462 28.0367 16.8462 27.2295V6.76799C16.8462 5.96081 16.1918 5.30645 15.3846 5.30645H3.69231Z" fill="currentColor"/>
    <path fill-rule="evenodd" clip-rule="evenodd" d="M50.4627 2.38341V6.76803H51.9243V2.38341H50.4627ZM49.0012 1.92187V6.76803L47.5397 6.76803H46.0781V8.22957V14.4603C46.0781 16.6695 47.869 18.4603 50.0781 18.4603L51.9243 18.4603V19.9219V21.3834H53.3858V31.6142H54.8474V21.3834H56.3089V31.6142H57.7704V21.3834H59.232V19.9219V18.4603L61.0781 18.4603C63.2873 18.4603 65.0781 16.6695 65.0781 14.4603V8.22957V6.76803H63.6166L62.155 6.76803V1.92188C62.155 1.36959 61.7073 0.921875 61.155 0.921875H58.7704C58.2181 0.921875 57.7704 1.36959 57.7704 1.92187V6.76803H53.3858V1.92188C53.3858 1.36959 52.9381 0.921875 52.3858 0.921875H50.0012C49.4489 0.921875 49.0012 1.36959 49.0012 1.92187ZM53.3858 19.9219L54.1166 19.9219H57.0397L57.7704 19.9219V18.4603H53.3858V19.9219ZM53.3858 16.9988H51.9243H50.0781C48.6762 16.9988 47.5397 15.8623 47.5397 14.4603V8.22957L49.0012 8.22957H50.4627H51.9243H53.3858H57.7704H59.232H60.6935H62.155L63.6166 8.22957V14.4603C63.6166 15.8623 62.4801 16.9988 61.0781 16.9988H59.232H57.7704H53.3858ZM59.232 6.76803H60.6935V2.38341H59.232V6.76803Z" fill="currentColor"/>
</svg>