<svg width="24" height="24" viewBox="0 0 24 24" fill="none" xmlns="http://www.w3.org/2000/svg">
<path d="M23.6 21.399C23.5 21.399 23.5 21.399 23.6 21.399C16.2 19.599 15.4 18.799 15.2 18.199C15.1 17.699 15.5 17.299 15.7 17.099C15.9 16.999 16.1 16.699 16 16.599C16 16.499 15.8 16.099 14 15.499C13.8 15.399 13.7 15.199 13.8 14.999C13.9 14.799 14.1 14.699 14.3 14.799C15.9 15.399 16.6 15.899 16.8 16.499C16.9 16.999 16.5 17.299 16.2 17.599C16.1 17.699 15.8 17.899 15.9 17.999C16 18.299 17.1 19.099 23.7 20.699C23.9 20.699 24 20.899 24 21.099C23.9 21.299 23.7 21.399 23.6 21.399Z" fill="currentColor"/>
<path d="M6.59922 22.199C1.79922 20.299 1.19922 19.299 1.19922 18.599C1.19922 17.699 2.19922 17.299 3.09922 16.899C3.49922 16.699 4.09922 16.399 4.19922 16.299C4.19922 16.299 4.09922 15.999 2.69922 15.499C2.49922 15.399 2.39922 15.199 2.49922 14.999C2.59922 14.799 2.79922 14.699 2.99922 14.799C4.39922 15.299 4.99922 15.799 4.99922 16.299C4.99922 16.899 4.29922 17.199 3.49922 17.599C2.89922 17.899 1.99922 18.299 1.99922 18.599C1.99922 18.899 2.49922 19.799 6.89922 21.499C7.09922 21.599 7.19922 21.799 7.09922 21.999C6.89922 22.099 6.69922 22.199 6.59922 22.199Z" fill="currentColor"/>
<path d="M8.4998 7.99922C9.4998 7.99922 10.0998 7.99922 10.3998 7.99922C10.3998 8.29922 10.2998 8.59922 10.2998 8.59922H10.1998C9.6998 8.59922 9.0998 8.69922 8.5998 8.69922C8.4998 8.69922 8.4998 8.69922 8.3998 8.69922C8.2998 8.69922 8.2998 8.69922 8.1998 8.69922C7.6998 8.69922 6.9998 8.59922 6.5998 8.59922H6.4998C6.4998 8.59922 6.4998 8.29922 6.3998 7.99922C6.7998 7.99922 7.4998 7.99922 8.4998 7.99922ZM8.4998 7.19922C7.8998 7.19922 6.2998 7.19922 6.1998 7.19922C5.9998 7.19922 5.7998 7.19922 5.7998 7.59922C5.7998 7.99922 5.8998 8.59922 5.8998 8.59922C5.8998 8.59922 5.8998 9.19922 6.2998 9.19922C6.6998 9.19922 7.5998 9.39922 8.2998 9.39922C8.3998 9.39922 8.3998 9.39922 8.4998 9.39922C8.5998 9.39922 8.5998 9.39922 8.6998 9.39922C9.3998 9.39922 10.2998 9.29922 10.6998 9.19922C11.0998 9.19922 11.0998 8.59922 11.0998 8.59922C11.0998 8.59922 11.1998 7.99922 11.1998 7.59922C11.1998 7.19922 10.9998 7.19922 10.7998 7.19922C10.6998 7.29922 8.9998 7.19922 8.4998 7.19922Z" fill="currentColor"/>
<path d="M11.1996 2.39922C11.5996 2.39922 12.2996 2.49922 12.5996 3.09922L14.1996 6.09922C14.4996 6.59922 14.6996 7.49922 14.6996 7.99922V12.3992H13.8996L13.5996 11.2992L13.4996 10.7992H12.8996H4.09961H3.59961L3.49961 11.2992L3.19961 12.3992H2.29961V7.99922C2.29961 7.49922 2.49961 6.59922 2.79961 6.09922L4.39961 3.09922C4.79961 2.49922 5.39961 2.39922 5.79961 2.39922H11.1996ZM11.1996 1.69922H5.89961C5.19961 1.69922 4.39961 1.89922 3.89961 2.79922L2.29961 5.79922C1.89961 6.39922 1.59961 7.39922 1.59961 7.99922V12.4992C1.59961 12.7992 1.89961 13.0992 2.19961 13.0992H3.19961C3.49961 13.0992 3.69961 12.8992 3.79961 12.5992L4.09961 11.4992H12.8996L13.1996 12.5992C13.2996 12.8992 13.4996 12.9992 13.7996 12.9992H14.7996C15.0996 12.9992 15.3996 12.6992 15.3996 12.3992V7.99922C15.3996 7.29922 15.0996 6.29922 14.7996 5.69922L13.1996 2.69922C12.6996 1.99922 11.7996 1.69922 11.1996 1.69922Z" fill="currentColor"/>
<path d="M2.49961 5.7L0.699609 5.4C0.399609 5.3 0.0996094 5 0.0996094 4.6V4.5C0.0996094 4.1 0.399609 3.8 0.799609 3.7L1.99961 3.5C2.19961 3.5 2.39961 3.5 2.49961 3.7C2.59961 3.9 2.59961 4.1 2.59961 4.3V5.2L2.49961 5.7ZM1.89961 4.3L0.799609 4.5V4.7L1.89961 4.9V4.3Z" fill="currentColor"/>
<path d="M14.4994 5.69961L14.3994 4.99961V4.29961C14.3994 4.09961 14.4994 3.89961 14.5994 3.79961C14.6994 3.69961 14.8994 3.59961 15.0994 3.59961L16.2994 3.79961C16.6994 3.79961 16.9994 4.19961 16.9994 4.49961V4.59961C16.9994 4.99961 16.6994 5.29961 16.2994 5.39961L14.4994 5.69961ZM14.9994 4.29961V4.79961L16.0994 4.59961V4.39961L14.9994 4.29961Z" fill="currentColor"/>
<path d="M11.9994 8.19922L11.8994 7.49922C12.1994 7.49922 12.5994 7.49922 13.1994 7.39922C13.4994 7.39922 13.5994 7.29922 13.6994 7.29922C13.6994 7.29922 13.7994 7.29922 13.7994 7.19922L13.9994 7.99922H13.8994C13.7994 8.09922 13.5994 8.09922 13.2994 8.19922C12.6994 8.19922 12.1994 8.19922 11.9994 8.19922Z" fill="currentColor"/>
<path d="M13.9344 7.06371L13.2383 7.13672L13.3634 8.33012L14.0596 8.25711L13.9344 7.06371Z" fill="currentColor"/>
<path d="M5.1 8.19883C4.8 8.19883 4.3 8.19883 3.7 8.09883C3.3 8.09883 3.2 8.09883 3 7.99883L3.1 7.29883C3.2 7.29883 3.2 7.29883 3.2 7.39883C3.3 7.39883 3.4 7.49883 3.7 7.49883C4.3 7.59883 4.7 7.59883 4.9 7.59883L5 7.99883L5.1 8.19883Z" fill="currentColor"/>
<path d="M3.02385 7.16195L2.89941 8.35547L3.59563 8.42806L3.72007 7.23454L3.02385 7.16195Z" fill="currentColor"/>
</svg>
