<svg width="24" height="25" viewBox="0 0 24 25" fill="none" xmlns="http://www.w3.org/2000/svg">
<path d="M23.9998 20.9941H6.7998V20.1941H23.9998V20.9941ZM23.9998 12.8941H6.7998V12.0941H23.9998V12.8941ZM23.9998 4.79414H6.7998V3.99414H23.9998V4.79414Z" fill="currentColor"/>
<path d="M2.2002 18.4941C1.1002 18.4941 0.200195 19.3941 0.200195 20.5941C0.200195 21.6941 1.1002 22.6941 2.2002 22.6941C3.3002 22.6941 4.2002 21.7941 4.2002 20.5941C4.2002 19.4941 3.3002 18.4941 2.2002 18.4941ZM2.2002 19.3941C2.9002 19.3941 3.4002 19.9941 3.4002 20.5941C3.4002 21.2941 2.9002 21.7941 2.2002 21.7941C1.5002 21.7941 1.0002 21.1941 1.0002 20.5941C1.0002 19.8941 1.5002 19.3941 2.2002 19.3941Z" fill="currentColor"/>
<path d="M1.7 15.0934L0 12.6934L0.7 12.1934L1.7 13.6934L4.1 10.2934L4.8 10.7934L1.7 15.0934ZM1.7 6.99336L0 4.59336L0.7 4.09336L1.7 5.59336L4.1 2.19336L4.8 2.69336L1.7 6.99336Z" fill="currentColor"/>
</svg>
