<svg width="24" height="25" viewBox="0 0 24 25" fill="none" xmlns="http://www.w3.org/2000/svg">
<g clip-path="url(#clipmappinchecked)">
<path d="M18.2002 16.5926L12.0002 22.8926L5.8002 16.6926C2.4002 13.2926 2.4002 7.69258 5.8002 4.19258C7.4002 2.49258 9.6002 1.49258 12.0002 1.49258C14.4002 1.49258 16.6002 2.39258 18.2002 4.09258C19.9002 5.79258 20.8002 7.99258 20.8002 10.2926C20.8002 12.6926 19.9002 14.8926 18.2002 16.5926ZM19.0002 3.29258C17.1002 1.39258 14.5002 0.392578 12.0002 0.392578C9.5002 0.392578 6.9002 1.39258 5.0002 3.29258C1.1002 7.19258 1.1002 13.4926 5.0002 17.3926L12.0002 24.3926L19.0002 17.3926C22.9002 13.4926 22.9002 7.19258 19.0002 3.29258Z" fill="currentColor"/>
<path d="M10.7002 14.4918L6.7002 10.4918L7.5002 9.6918L10.7002 12.8918L16.5002 7.0918L17.3002 7.8918L10.7002 14.4918Z" fill="currentColor"/>
</g>
<defs>
<clipPath id="clipmappinchecked">
<rect width="24" height="24" fill="white" transform="translate(0 0.392578)"/>
</clipPath>
</defs>
</svg>
