<svg width="25" height="24" viewBox="0 0 25 24" fill="none" xmlns="http://www.w3.org/2000/svg">
<path d="M24.4002 24.0004H7.6416V20.6004H8.46919V23.2004H23.5726V15.1004C23.5726 13.0004 21.814 11.3004 19.6416 11.3004H12.4002C11.7795 11.3004 10.9519 11.5004 10.5382 11.7004L10.1244 11.0004C10.7451 10.6004 11.7795 10.4004 12.4002 10.4004H19.6416C22.2278 10.4004 24.4002 12.5004 24.4002 15.0004V24.0004Z" fill="currentColor"/>
<path d="M16.1241 0.899989C18.0896 0.899989 19.6414 2.39997 19.6414 4.29995C19.6414 6.19992 18.0896 7.69991 16.1241 7.69991C14.1586 7.69991 12.6069 6.19992 12.6069 4.29995C12.7103 2.39997 14.2621 0.899989 16.1241 0.899989ZM16.1241 0C13.7448 0 11.7793 1.89998 11.7793 4.19995C11.7793 6.49992 13.7448 8.3999 16.1241 8.3999C18.5034 8.3999 20.4689 6.49992 20.4689 4.19995C20.4689 1.89998 18.6069 0 16.1241 0Z" fill="currentColor"/>
<path d="M20.3656 20.0996H17.1587V18.3996H20.3656V20.0996ZM21.2966 17.5996H16.4346V20.9996H21.2966V17.5996Z" fill="currentColor"/>
<path d="M9.60727 19.8001H1.22798V8.8H9.60727V19.8001V19.8001ZM10.5383 8H0.400391V20.6001H10.5383V8V8Z" fill="currentColor"/>
<path d="M8.15883 11.0996H4.6416V11.8996H8.15883V11.0996Z" fill="currentColor"/>
<path d="M8.15883 13.9004H4.6416V14.7004H8.15883V13.9004Z" fill="currentColor"/>
<path d="M8.15883 16.9004H4.6416V17.7003H8.15883V16.9004Z" fill="currentColor"/>
<path d="M3.6076 11.5004C3.6076 11.8004 3.29725 12.1004 2.98691 12.1004C2.67656 12.1004 2.36621 11.8004 2.36621 11.5004C2.36621 11.2004 2.67656 10.9004 2.98691 10.9004C3.29725 11.0004 3.6076 11.2004 3.6076 11.5004Z" fill="currentColor"/>
<path d="M3.6076 14.4008C3.6076 14.7008 3.29725 15.0008 2.98691 15.0008C2.67656 15.0008 2.36621 14.7008 2.36621 14.4008C2.36621 14.1008 2.67656 13.8008 2.98691 13.8008C3.29725 13.8008 3.6076 14.0008 3.6076 14.4008Z" fill="currentColor"/>
<path d="M3.6076 17.2992C3.6076 17.5992 3.29725 17.8993 2.98691 17.8993C2.67656 17.8993 2.36621 17.5992 2.36621 17.2992C2.36621 16.9992 2.67656 16.6992 2.98691 16.6992C3.29725 16.6992 3.6076 16.9992 3.6076 17.2992Z" fill="currentColor"/>
</svg>
