<svg width="24" height="24" viewBox="0 0 24 24" fill="none" xmlns="http://www.w3.org/2000/svg">
<g clip-path="url(#clipinterior)">
<path d="M17.1996 23.9H6.79961C4.69961 23.9 4.59961 22.6 4.59961 22.5V19.9C4.59961 18.9 5.89961 18.2 6.49961 17.9C5.99961 17.1 5.69961 16.2 5.69961 15.6C5.69961 14.9 5.89961 14.2 5.99961 13.4C6.29961 12.3 6.49961 10.9 6.49961 9.3C6.49961 5.3 8.79961 5.2 8.89961 5.2H15.0996C15.1996 5.2 17.4996 5.2 17.4996 9.3C17.4996 11 17.7996 12.3 17.9996 13.4C18.1996 14.2 18.2996 15 18.2996 15.6C18.2996 16.3 17.9996 17.1 17.4996 17.9C18.0996 18.2 19.3996 18.9 19.3996 19.9V22.4C19.3996 22.6 19.1996 23.9 17.1996 23.9ZM11.9996 23.1H17.1996C18.4996 23.1 18.5996 22.5 18.5996 22.5V20C18.5996 19.6 17.6996 19 17.0996 18.7C16.3996 19.5 15.4996 20.2 14.5996 20.2H9.39961C8.49961 20.2 7.59961 19.6 6.89961 18.7C6.29961 19 5.39961 19.6 5.39961 20V22.5C5.39961 22.5 5.59961 23.1 6.79961 23.1H11.9996ZM8.89961 6.1C8.79961 6.1 7.39961 6.2 7.39961 9.3C7.39961 11 7.09961 12.5 6.79961 13.6C6.59961 14.4 6.49961 15.1 6.49961 15.6C6.49961 16.9 8.09961 19.3 9.39961 19.3H14.4996C15.8996 19.3 17.3996 16.9 17.3996 15.6C17.3996 15 17.2996 14.3 17.0996 13.6C16.8996 12.5 16.4996 11.1 16.4996 9.3C16.4996 6.1 14.9996 6.1 14.9996 6.1H14.1996L13.7996 8.1C13.5996 8.9 13.1996 9.3 12.5996 9.3H11.0996C10.5996 9.3 10.0996 8.8 9.89961 8.1L9.69961 6.1H8.89961ZM10.4996 6.1L10.8996 8C10.9996 8.3 11.0996 8.5 11.2996 8.5H12.7996C12.8996 8.5 13.0996 8.3 13.1996 7.9L13.5996 6L10.4996 6.1ZM13.5996 4.7H10.3996C9.69961 4.7 9.09961 4.1 9.09961 3.4L9.39961 1.3C9.39961 0.6 9.99961 0 10.5996 0H13.2996C13.9996 0 14.5996 0.6 14.5996 1.3L14.8996 3.4C14.8996 4.1 14.2996 4.7 13.5996 4.7ZM10.6996 0.7C10.4996 0.7 10.2996 1 10.2996 1.3L9.99961 3.4C9.99961 3.6 10.1996 3.9 10.3996 3.9H13.5996C13.7996 3.9 13.9996 3.7 13.9996 3.4L13.6996 1.3C13.6996 1 13.4996 0.7 13.2996 0.7H10.6996Z" fill="currentColor"/>
</g>
<defs>
<clipPath id="clipinterior">
<rect width="24" height="23.9" fill="white"/>
</clipPath>
</defs>
</svg>
