<svg width="24" height="25" viewBox="0 0 24 25" fill="none" xmlns="http://www.w3.org/2000/svg">
<path d="M23 22.5926L16.6 16.1926C18 14.5926 18.9 12.5926 18.9 10.2926C18.9 5.39258 14.9 1.39258 10 1.39258C5.1 1.39258 1 5.39258 1 10.2926C1 15.1926 5 19.1926 9.9 19.1926C12.1 19.1926 14.2 18.3926 15.7 16.9926L22.1 23.3926L23 22.5926ZM2.2 10.2926C2.2 5.99258 5.7 2.49258 10 2.49258C14.3 2.49258 17.8 5.99258 17.8 10.2926C17.8 14.5926 14.3 18.0926 10 18.0926C5.7 18.0926 2.2 14.5926 2.2 10.2926Z" fill="currentColor"/>
</svg>
