<svg width="24" height="24" viewBox="0 0 24 24" fill="none" xmlns="http://www.w3.org/2000/svg">
<path d="M21.2004 5.80078H14.9004V6.80078H21.2004V5.80078Z" fill="currentColor"/>
<path d="M21.1004 10.5996H14.9004V11.5996H21.1004V10.5996Z" fill="currentColor"/>
<path d="M20.0004 7.5H14.9004V8.5H20.0004V7.5Z" fill="currentColor"/>
<path d="M21.1004 12.4004H14.9004V13.4004H21.1004V12.4004Z" fill="currentColor"/>
<path d="M17.1004 14.3008H14.9004V15.3008H17.1004V14.3008Z" fill="currentColor"/>
<path d="M9 2.80039C9.9 2.80039 10.7 3.30039 11.2 4.10039C11.4 4.50039 11.5 4.90039 11.5 5.30039V18.6004C10.8 18.1004 10 17.8004 9 17.8004H0.9V2.80039H9ZM9 1.90039H0V18.7004H9C10 18.7004 10.9 19.2004 11.5 19.9004C11.7 20.1004 11.8 20.4004 12 20.6004C12.1 20.4004 12.3 20.1004 12.4 19.9004V5.30039C12.4 4.70039 12.2 4.10039 12 3.60039C11.4 2.60039 10.3 1.90039 9 1.90039Z" fill="currentColor"/>
<path d="M23.0996 2.80039V17.8004H14.9996C14.0996 17.8004 13.1996 18.1004 12.4996 18.7004V5.30039C12.4996 4.90039 12.5996 4.40039 12.7996 4.10039C13.1996 3.30039 14.0996 2.80039 14.9996 2.80039H23.0996ZM23.9996 1.90039H14.9996C13.6996 1.90039 12.5996 2.60039 11.9996 3.60039C11.6996 4.10039 11.5996 4.70039 11.5996 5.30039V19.9004C11.7996 20.1004 11.8996 20.4004 12.0996 20.6004C12.1996 20.4004 12.3996 20.1004 12.4996 19.9004C13.0996 19.1004 13.9996 18.7004 14.9996 18.7004H23.9996V1.90039Z" fill="currentColor"/>
<path d="M13.0998 21.6004L12.2998 21.3004C12.7998 20.2004 13.8998 19.4004 15.0998 19.4004H23.4998V20.3004H15.0998C14.1998 20.3004 13.3998 20.8004 13.0998 21.6004Z" fill="currentColor"/>
<path d="M10.8996 21.6004C10.5996 20.8004 9.79961 20.3004 8.99961 20.3004H0.599609V19.4004H8.99961C10.1996 19.4004 11.2996 20.1004 11.7996 21.3004L10.8996 21.6004Z" fill="currentColor"/>
</svg>
