<svg width="24" height="25" viewBox="0 0 24 25" fill="none" xmlns="http://www.w3.org/2000/svg">
<path d="M12 15.2926C11.3 15.2926 10.5 15.0926 10 14.5926L0 6.49258L0.5 5.89258L10.5 13.9926C11.4 14.6926 12.7 14.6926 13.6 13.9926L23.6 5.89258L24 6.49258L14 14.5926C13.5 15.0926 12.7 15.2926 12 15.2926Z" fill="currentColor"/>
<path d="M8.39391 12.6571L0.776367 18.8223L1.21674 19.3664L8.83428 13.2012L8.39391 12.6571Z" fill="currentColor"/>
<path d="M15.6558 12.7486L15.2158 13.293L22.8373 19.4532L23.2773 18.9089L15.6558 12.7486Z" fill="currentColor"/>
<path d="M23.3 5.69258V17.7926C23.3 18.5926 22.4 19.1926 21.4 19.1926H2.7C1.7 19.1926 0.8 18.4926 0.8 17.7926V5.69258H23.3ZM24 4.89258H0V17.6926C0 18.8926 1.2 19.8926 2.7 19.8926H21.3C22.8 19.8926 24 18.8926 24 17.6926V4.89258Z" fill="currentColor"/>
</svg>
