<svg width="24" height="24" viewBox="0 0 24 24" fill="none" xmlns="http://www.w3.org/2000/svg">
<g clip-path="url(#clipwifi)">
<path d="M12.0002 21.6C10.4002 21.6 9.2002 20.3 9.2002 18.8C9.2002 17.3 10.5002 16 12.0002 16C13.5002 16 14.8002 17.3 14.8002 18.8C14.8002 20.3 13.6002 21.6 12.0002 21.6ZM12.0002 16.8C10.9002 16.8 10.0002 17.7 10.0002 18.8C10.0002 19.9 10.9002 20.8 12.0002 20.8C13.1002 20.8 14.0002 19.9 14.0002 18.8C14.0002 17.7 13.1002 16.8 12.0002 16.8Z" fill="currentColor"/>
<path d="M6.4998 14.0992L5.7998 13.5992C7.2998 11.7992 9.5998 10.6992 11.9998 10.6992C14.3998 10.6992 16.5998 11.6992 18.0998 13.4992L17.4998 14.0992C16.0998 12.4992 14.0998 11.5992 11.9998 11.5992C9.8998 11.4992 7.8998 12.4992 6.4998 14.0992Z" fill="currentColor"/>
<path d="M3.3998 11.1004L2.7998 10.5004C5.0998 7.90039 8.4998 6.40039 11.9998 6.40039C15.4998 6.40039 18.8998 7.90039 21.1998 10.5004L20.5998 11.1004C18.3998 8.60039 15.2998 7.20039 11.9998 7.20039C8.6998 7.20039 5.5998 8.70039 3.3998 11.1004Z" fill="currentColor"/>
<path d="M0.6 8.4L0 7.8C3 4.4 7.4 2.5 12 2.5C16.6 2.5 21 4.4 24.1 7.8L23.5 8.4C20.5 5.2 16.3 3.3 12 3.3C7.7 3.3 3.5 5.2 0.6 8.4Z" fill="currentColor"/>
</g>
<defs>
<clipPath id="clipwifi">
<rect width="24" height="24" fill="white"/>
</clipPath>
</defs>
</svg>
