<svg width="24" height="24" viewBox="0 0 24 24" fill="none" xmlns="http://www.w3.org/2000/svg">
<path d="M23.1 7.1V19.8C23.1 21.7 21.6 23.2 19.7 23.2H4.2C2.3 23.2 0.8 21.7 0.8 19.8V0.8H3.8V3H4.6V0.8H19.2V3H20.1V0.8H23.1V7.1ZM0 0V19.8C0 22.1 1.9 24 4.2 24H19.7C22 24 23.9 22.1 23.9 19.8V0H0Z" fill="currentColor"/>
<path d="M13.0998 14.7992C13.0998 15.2992 12.9998 15.7992 12.7998 16.2992C12.5998 16.6992 12.2998 17.0992 11.9998 17.3992C11.6998 17.6992 11.1998 17.8992 10.7998 17.9992C10.2998 18.1992 9.7998 18.1992 9.2998 18.1992C8.7998 18.1992 8.2998 18.0992 7.8998 17.9992C7.4998 17.8992 7.0998 17.6992 6.6998 17.3992C6.2998 17.0992 5.9998 16.7992 5.7998 16.3992C5.4998 15.8992 5.3998 15.3992 5.2998 14.8992V14.7992L6.3998 14.3992V14.4992C6.2998 15.2992 6.5998 16.0992 7.1998 16.5992C7.7998 17.0992 8.4998 17.2992 9.2998 17.2992C9.6998 17.2992 10.1998 17.1992 10.5998 17.0992C10.8998 16.9992 11.1998 16.7992 11.3998 16.4992C11.5998 16.2992 11.6998 15.9992 11.7998 15.6992C11.8998 15.3992 11.8998 15.1992 11.8998 14.8992C11.8998 14.3992 11.7998 13.9992 11.5998 13.4992C11.3998 13.1992 11.0998 12.8992 10.7998 12.7992C10.4998 12.5992 10.0998 12.4992 9.7998 12.4992C9.4998 12.4992 9.0998 12.3992 8.7998 12.3992H8.1998H7.7998H7.3998V11.3992C7.4998 11.3992 7.5998 11.3992 7.6998 11.3992H8.7998C8.9998 11.3992 9.2998 11.3992 9.4998 11.2992C9.7998 11.2992 10.1998 11.1992 10.4998 10.9992C10.7998 10.7992 11.0998 10.5992 11.2998 10.2992C11.5998 9.89922 11.6998 9.49922 11.6998 8.99922C11.6998 8.69922 11.5998 8.29922 11.4998 7.99922C11.2998 7.79922 11.0998 7.59922 10.8998 7.39922C10.6998 7.19922 10.3998 7.09922 10.0998 6.99922C9.89981 7.09922 9.5998 7.09922 9.2998 7.09922C8.7998 7.09922 8.3998 7.19922 7.9998 7.29922C7.6998 7.49922 7.3998 7.69922 7.1998 7.99922C6.9998 8.19922 6.7998 8.49922 6.7998 8.79922C6.6998 8.99922 6.5998 9.19922 6.5998 9.49922V9.59922L5.4998 9.29922C5.5998 8.99922 5.6998 8.59922 5.7998 8.29922C5.9998 7.89922 6.1998 7.59922 6.4998 7.29922C6.7998 6.99922 7.1998 6.69922 7.5998 6.49922C8.0998 6.29922 8.6998 6.19922 9.2998 6.19922C9.7998 6.19922 10.1998 6.29922 10.6998 6.39922C11.0998 6.49922 11.4998 6.69922 11.7998 6.99922C12.0998 7.29922 12.3998 7.59922 12.5998 7.89922C12.7998 8.29922 12.8998 8.79922 12.8998 9.29922C12.8998 9.69922 12.7998 9.99922 12.6998 10.3992C12.4998 10.6992 12.2998 10.9992 11.9998 11.1992C11.6998 11.3992 11.3998 11.5992 11.0998 11.6992C10.7998 11.7992 10.3998 11.8992 10.0998 11.9992C10.4998 11.9992 10.7998 12.0992 11.1998 12.1992C11.5998 12.2992 11.8998 12.4992 12.1998 12.6992C12.6998 13.1992 13.0998 13.9992 13.0998 14.7992Z" fill="currentColor"/>
<path d="M17.1 17.9V8.6C16.9 8.8 16.6 8.9 16.4 8.9C16 9 15.7 9 15.3 9H15V8.2C15.4 8.2 15.8 8.1 16.1 8C16.4 7.9 16.6 7.7 16.8 7.5C16.9 7.5 17 7.3 17 7.2C17.1 7 17.1 6.8 17.1 6.6V6.5H18.1V17.9H17.1Z" fill="currentColor"/>
</svg>
