<svg width="24" height="25" viewBox="0 0 24 25" fill="none" xmlns="http://www.w3.org/2000/svg">
<g clip-path="url(#clipdeleteinput)">
<path d="M12 1.49262C6 1.49262 1.1 6.39278 1.1 12.393C1.1 18.4932 6 23.3934 12 23.3934C18 23.3934 22.9 18.4932 22.9 12.493C22.9 6.39278 18 1.49262 12 1.49262ZM12 24.3934C5.4 24.3934 0 18.9932 0 12.393C0 5.79276 5.4 0.392578 12 0.392578C18.6 0.392578 24 5.79276 24 12.393C24 19.0932 18.6 24.3934 12 24.3934Z" fill="currentColor"/>
<path d="M17.5002 18.6922L12.0002 13.192L6.5002 18.6922L5.7002 17.9922L11.2002 12.392L5.7002 6.89182L6.5002 6.0918L12.0002 11.692L17.5002 6.0918L18.3002 6.89182L12.8002 12.392L18.3002 17.9922L17.5002 18.6922Z" fill="currentColor"/>
</g>
<defs>
<clipPath id="clipdeleteinput">
<rect width="24" height="24" fill="white" transform="translate(0 0.392578)"/>
</clipPath>
</defs>
</svg>
