<svg width="24" height="25" viewBox="0 0 24 25" fill="none" xmlns="http://www.w3.org/2000/svg">
<path d="M23.1 7.6918H0.9V3.9918H23.1V7.6918ZM0.9 8.5918H23.1V20.8918H0.9V8.5918ZM0 21.7918H24V3.0918H0V21.7918Z" fill="currentColor"/>
<path d="M16.3004 5.29102H2.40039V6.19102H16.3004V5.29102Z" fill="currentColor"/>
<path d="M18.3996 5.29102H17.5996V6.19102H18.3996V5.29102Z" fill="currentColor"/>
<path d="M20.0998 5.29102H19.2998V6.19102H20.0998V5.29102Z" fill="currentColor"/>
<path d="M21.8996 5.29102H21.0996V6.19102H21.8996V5.29102Z" fill="currentColor"/>
<path d="M23.1 7.6918H0.9V3.9918H23.1V7.6918ZM0.9 8.5918H23.1V20.8918H0.9V8.5918ZM0 21.7918H24V3.0918H0V21.7918Z" fill="currentColor"/>
<path d="M16.3004 5.29102H2.40039V6.19102H16.3004V5.29102Z" fill="currentColor"/>
<path d="M18.3996 5.29102H17.5996V6.19102H18.3996V5.29102Z" fill="currentColor"/>
<path d="M20.0998 5.29102H19.2998V6.19102H20.0998V5.29102Z" fill="currentColor"/>
<path d="M21.8996 5.29102H21.0996V6.19102H21.8996V5.29102Z" fill="currentColor"/>
</svg>
