<svg width="24" height="24" viewBox="0 0 24 24" fill="none" xmlns="http://www.w3.org/2000/svg">
<g clip-path="url(#clipsecurity)">
<path d="M19.7 11.0992V21.0992C19.7 22.2992 18.7 23.1992 17.6 23.1992H6.4C5.2 23.1992 4.3 22.1992 4.3 21.0992V11.0992H19.7ZM20.5 10.1992H3.5V21.0992C3.5 22.6992 4.8 24.0992 6.5 24.0992H17.7C19.3 24.0992 20.7 22.7992 20.7 21.0992V10.1992H20.5Z" fill="currentColor"/>
<path d="M19 10.4996H18.1V7.09961C18.1 3.69961 15.3 0.999609 12 0.999609C8.7 0.999609 5.9 3.69961 5.9 7.09961V10.2996H5V7.09961C5 3.19961 8.1 0.0996094 12 0.0996094C15.9 0.0996094 19 3.19961 19 7.09961V10.4996Z" fill="currentColor"/>
<path d="M12 14.2004C12.7 14.2004 13.2 14.7004 13.2 15.4004C13.2 15.8004 13 16.2004 12.6 16.4004L12.2 16.6004V17.1004V18.9004C12.2 19.0004 12.1 19.1004 12 19.1004C11.9 19.1004 11.8 19.0004 11.8 18.9004V17.1004V16.6004L11.4 16.4004C11 16.2004 10.8 15.8004 10.8 15.4004C10.8 14.8004 11.3 14.2004 12 14.2004ZM12 13.4004C10.9 13.4004 10 14.3004 10 15.4004C10 16.2004 10.4 16.8004 11 17.2004V19.0004C11 19.6004 11.5 20.0004 12 20.0004C12.6 20.0004 13 19.5004 13 19.0004V17.2004C13.6 16.8004 14 16.2004 14 15.4004C14 14.3004 13.1 13.4004 12 13.4004Z" fill="currentColor"/>
</g>
<defs>
<clipPath id="clipsecurity">
<rect width="24" height="24" fill="white"/>
</clipPath>
</defs>
</svg>
