<svg width="24" height="25" viewBox="0 0 24 25" fill="none" xmlns="http://www.w3.org/2000/svg">
<g clip-path="url(#clipnotebook)">
<path d="M4.99961 4.59258C4.99961 4.29258 5.29961 3.99258 5.59961 3.99258C5.89961 3.99258 6.19961 4.19258 6.19961 4.59258C6.19961 4.89258 5.89961 5.19258 5.59961 5.19258C5.29961 5.19258 4.99961 4.89258 4.99961 4.59258ZM4.99961 9.79258C4.99961 9.49258 5.29961 9.19258 5.59961 9.19258C5.89961 9.19258 6.19961 9.39258 6.19961 9.79258C6.19961 10.0926 5.89961 10.3926 5.59961 10.3926C5.29961 10.2926 4.99961 10.0926 4.99961 9.79258ZM4.99961 15.0926C4.99961 14.7926 5.29961 14.4926 5.59961 14.4926C5.89961 14.4926 6.19961 14.6926 6.19961 15.0926C6.19961 15.3926 5.89961 15.6926 5.59961 15.6926C5.29961 15.5926 4.99961 15.3926 4.99961 15.0926ZM4.99961 19.7926C4.99961 19.4926 5.29961 19.1926 5.59961 19.1926C5.89961 19.1926 6.19961 19.3926 6.19961 19.7926C6.19961 20.0926 5.89961 20.3926 5.59961 20.3926C5.29961 20.3926 4.99961 20.0926 4.99961 19.7926ZM22.0996 23.5926H3.29961V20.2926H4.39961C4.59961 20.7926 5.09961 21.0926 5.59961 21.0926C6.29961 21.0926 6.89961 20.4926 6.89961 19.8926C6.89961 19.1926 6.29961 18.6926 5.59961 18.6926C4.99961 18.6926 4.59961 19.0926 4.39961 19.4926H3.29961V15.4926H4.39961C4.59961 15.9926 5.09961 16.2926 5.59961 16.2926C6.29961 16.2926 6.89961 15.6926 6.89961 15.0926C6.89961 14.3926 6.29961 13.8926 5.59961 13.8926C4.99961 13.8926 4.59961 14.2926 4.39961 14.6926H3.29961V10.1926H4.39961C4.59961 10.6926 5.09961 10.9926 5.59961 10.9926C6.29961 10.9926 6.89961 10.3926 6.89961 9.79258C6.89961 9.09258 6.39961 8.49258 5.59961 8.49258C4.99961 8.49258 4.59961 8.89258 4.39961 9.29258H3.29961V4.99258H4.39961C4.59961 5.49258 5.09961 5.89258 5.59961 5.89258C6.29961 5.89258 6.89961 5.29258 6.89961 4.69258C6.89961 3.99258 6.29961 3.39258 5.59961 3.39258C4.99961 3.39258 4.59961 3.79258 4.39961 4.19258H3.29961V1.29258H22.0996V23.5926ZM3.29961 0.392578H2.49961V1.19258V4.09258H1.09961V4.89258H2.49961V9.19258H1.09961V9.99258H2.49961V14.4926H1.09961V15.4926H2.49961V19.3926H1.09961V20.1926H2.49961V23.5926V24.3926H3.29961H22.0996H22.8996V23.5926V1.29258V0.392578H3.29961Z" fill="currentColor"/>
<path d="M18.8992 4.19336H9.69922V4.99336H18.8992V4.19336Z" fill="currentColor"/>
<path d="M18.8992 7.99219H9.69922V8.79219H18.8992V7.99219Z" fill="currentColor"/>
<path d="M18.8992 11.8926H9.69922V12.6926H18.8992V11.8926Z" fill="currentColor"/>
<path d="M15.9992 15.5918H9.69922V16.3918H15.9992V15.5918Z" fill="currentColor"/>
<path d="M18.8992 19.3926H9.69922V20.1926H18.8992V19.3926Z" fill="currentColor"/>
</g>
<defs>
<clipPath id="clipnotebook">
<rect width="24" height="24" fill="white" transform="translate(0 0.392578)"/>
</clipPath>
</defs>
</svg>
