<svg width="24" height="25" viewBox="0 0 24 25" fill="none" xmlns="http://www.w3.org/2000/svg">
<g clip-path="url(#clipfinance)">
<path d="M20.0002 1.29258V10.0926V20.8926C20.0002 22.3926 18.8002 23.6926 17.2002 23.6926H6.8002C5.3002 23.6926 4.0002 22.4926 4.0002 20.8926V9.99258V1.29258H20.0002ZM20.8002 0.392578H3.2002V9.99258V20.7926C3.2002 22.7926 4.8002 24.3926 6.8002 24.3926H17.2002C19.2002 24.3926 20.8002 22.7926 20.8002 20.7926V9.99258V0.392578Z" fill="currentColor"/>
<path d="M7.90039 10.6926C8.30039 10.6926 8.50039 10.9926 8.50039 11.2926C8.50039 11.6926 8.20039 11.8926 7.90039 11.8926C7.50039 11.8926 7.30039 11.5926 7.30039 11.2926C7.30039 10.9926 7.60039 10.6926 7.90039 10.6926ZM7.90039 9.89258C7.10039 9.89258 6.40039 10.5926 6.40039 11.3926C6.40039 12.1926 7.10039 12.8926 7.90039 12.8926C8.70039 12.8926 9.40039 12.1926 9.40039 11.3926C9.40039 10.4926 8.70039 9.89258 7.90039 9.89258Z" fill="currentColor"/>
<path d="M12 10.6926C12.4 10.6926 12.6 10.9926 12.6 11.2926C12.6 11.6926 12.3 11.8926 12 11.8926C11.6 11.8926 11.4 11.5926 11.4 11.2926C11.4 10.9926 11.6 10.6926 12 10.6926ZM12 9.89258C11.2 9.89258 10.5 10.5926 10.5 11.3926C10.5 12.1926 11.2 12.8926 12 12.8926C12.8 12.8926 13.5 12.1926 13.5 11.3926C13.5 10.4926 12.8 9.89258 12 9.89258Z" fill="currentColor"/>
<path d="M16.0996 10.6926C16.4996 10.6926 16.6996 10.9926 16.6996 11.2926C16.6996 11.6926 16.3996 11.8926 16.0996 11.8926C15.6996 11.8926 15.4996 11.5926 15.4996 11.2926C15.3996 10.9926 15.6996 10.6926 16.0996 10.6926ZM16.0996 9.89258C15.2996 9.89258 14.5996 10.5926 14.5996 11.3926C14.5996 12.1926 15.2996 12.8926 16.0996 12.8926C16.8996 12.8926 17.5996 12.1926 17.5996 11.3926C17.5996 10.4926 16.8996 9.89258 16.0996 9.89258Z" fill="currentColor"/>
<path d="M7.90039 14.6926C8.30039 14.6926 8.50039 14.9926 8.50039 15.2926C8.50039 15.6926 8.20039 15.8926 7.90039 15.8926C7.50039 15.8926 7.30039 15.5926 7.30039 15.2926C7.30039 14.9926 7.60039 14.6926 7.90039 14.6926ZM7.90039 13.8926C7.10039 13.8926 6.40039 14.5926 6.40039 15.3926C6.40039 16.1926 7.10039 16.8926 7.90039 16.8926C8.70039 16.8926 9.40039 16.1926 9.40039 15.3926C9.40039 14.4926 8.70039 13.8926 7.90039 13.8926Z" fill="currentColor"/>
<path d="M12 14.6926C12.4 14.6926 12.6 14.9926 12.6 15.2926C12.6 15.6926 12.3 15.8926 12 15.8926C11.6 15.8926 11.4 15.5926 11.4 15.2926C11.4 14.9926 11.6 14.6926 12 14.6926ZM12 13.8926C11.2 13.8926 10.5 14.5926 10.5 15.3926C10.5 16.1926 11.2 16.8926 12 16.8926C12.8 16.8926 13.5 16.1926 13.5 15.3926C13.5 14.4926 12.8 13.8926 12 13.8926Z" fill="currentColor"/>
<path d="M16.0996 14.6926C16.4996 14.6926 16.6996 14.9926 16.6996 15.2926C16.6996 15.6926 16.3996 15.8926 16.0996 15.8926C15.6996 15.8926 15.4996 15.5926 15.4996 15.2926C15.3996 14.9926 15.6996 14.6926 16.0996 14.6926ZM16.0996 13.8926C15.2996 13.8926 14.5996 14.5926 14.5996 15.3926C14.5996 16.1926 15.2996 16.8926 16.0996 16.8926C16.8996 16.8926 17.5996 16.1926 17.5996 15.3926C17.5996 14.4926 16.8996 13.8926 16.0996 13.8926Z" fill="currentColor"/>
<path d="M7.90039 18.6926C8.30039 18.6926 8.50039 18.9926 8.50039 19.2926C8.50039 19.6926 8.20039 19.8926 7.90039 19.8926C7.50039 19.8926 7.30039 19.5926 7.30039 19.2926C7.30039 18.9926 7.60039 18.6926 7.90039 18.6926ZM7.90039 17.8926C7.10039 17.8926 6.40039 18.5926 6.40039 19.3926C6.40039 20.1926 7.10039 20.8926 7.90039 20.8926C8.70039 20.8926 9.40039 20.1926 9.40039 19.3926C9.40039 18.4926 8.70039 17.8926 7.90039 17.8926Z" fill="currentColor"/>
<path d="M12 18.6926C12.4 18.6926 12.6 18.9926 12.6 19.2926C12.6 19.6926 12.3 19.8926 12 19.8926C11.6 19.8926 11.4 19.5926 11.4 19.2926C11.4 18.9926 11.6 18.6926 12 18.6926ZM12 17.8926C11.2 17.8926 10.5 18.5926 10.5 19.3926C10.5 20.1926 11.2 20.8926 12 20.8926C12.8 20.8926 13.5 20.1926 13.5 19.3926C13.5 18.4926 12.8 17.8926 12 17.8926Z" fill="currentColor"/>
<path d="M16.0996 18.6926C16.4996 18.6926 16.6996 18.9926 16.6996 19.2926C16.6996 19.6926 16.3996 19.8926 16.0996 19.8926C15.6996 19.8926 15.4996 19.5926 15.4996 19.2926C15.3996 18.9926 15.6996 18.6926 16.0996 18.6926ZM16.0996 17.8926C15.2996 17.8926 14.5996 18.5926 14.5996 19.3926C14.5996 20.1926 15.2996 20.8926 16.0996 20.8926C16.8996 20.8926 17.5996 20.1926 17.5996 19.3926C17.5996 18.4926 16.8996 17.8926 16.0996 17.8926Z" fill="currentColor"/>
<path d="M16.7004 6.29297H7.30039V4.59297H16.7004V6.29297ZM17.6004 3.79297H6.40039V7.19297H17.5004V3.79297H17.6004Z" fill="currentColor"/>
</g>
<defs>
<clipPath id="clipfinance">
<rect width="24" height="24" fill="white" transform="translate(0 0.392578)"/>
</clipPath>
</defs>
</svg>
