<svg width="24" height="24" viewBox="0 0 24 24" fill="none" xmlns="http://www.w3.org/2000/svg">
    <path fill-rule="evenodd" clip-rule="evenodd" d="M12 0C8.741 0 8.33234 0.0138139 7.05242 0.0722133C5.77516 0.13047 4.90283 0.333343 4.13954 0.630008C3.35044 0.936629 2.68123 1.34695 2.01406 2.01406C1.34695 2.68123 0.936629 3.35044 0.630008 4.13954C0.333343 4.90283 0.13047 5.77516 0.0722133 7.05242C0.0138139 8.33234 0 8.741 0 12C0 15.259 0.0138139 15.6677 0.0722133 16.9476C0.13047 18.2248 0.333343 19.0972 0.630008 19.8605C0.936629 20.6496 1.34695 21.3188 2.01406 21.9859C2.68123 22.6531 3.35044 23.0634 4.13954 23.37C4.90283 23.6667 5.77516 23.8695 7.05242 23.9278C8.33234 23.9862 8.741 24 12 24C15.259 24 15.6677 23.9862 16.9476 23.9278C18.2248 23.8695 19.0972 23.6667 19.8605 23.37C20.6496 23.0634 21.3188 22.6531 21.9859 21.9859C22.6531 21.3188 23.0634 20.6496 23.37 19.8605C23.6667 19.0972 23.8695 18.2248 23.9278 16.9476C23.9862 15.6677 24 15.259 24 12C24 8.741 23.9862 8.33234 23.9278 7.05242C23.8695 5.77516 23.6667 4.90283 23.37 4.13954C23.0634 3.35044 22.6531 2.68123 21.9859 2.01406C21.3188 1.34695 20.6496 0.936629 19.8605 0.630008C19.0972 0.333343 18.2248 0.13047 16.9476 0.0722133C15.6677 0.0138139 15.259 0 12 0ZM12 2.16211C15.2041 2.16211 15.5836 2.17435 16.849 2.23208C18.019 2.28543 18.6544 2.48092 19.0772 2.64526C19.6373 2.86295 20.0371 3.12298 20.457 3.54293C20.8769 3.96282 21.137 4.36257 21.3546 4.92269C21.519 5.34554 21.7145 5.98093 21.7678 7.15092C21.8256 8.41627 21.8378 8.79582 21.8378 12C21.8378 15.2041 21.8256 15.5836 21.7678 16.849C21.7145 18.019 21.519 18.6544 21.3546 19.0772C21.137 19.6373 20.8769 20.0371 20.457 20.457C20.0371 20.8769 19.6373 21.137 19.0772 21.3546C18.6544 21.519 18.019 21.7145 16.849 21.7678C15.5838 21.8256 15.2043 21.8378 12 21.8378C8.79558 21.8378 8.41613 21.8256 7.15092 21.7678C5.98093 21.7145 5.34554 21.519 4.92269 21.3546C4.36257 21.137 3.96282 20.8769 3.54293 20.457C3.12303 20.0371 2.86295 19.6373 2.64526 19.0772C2.48092 18.6544 2.28543 18.019 2.23208 16.849C2.17435 15.5836 2.16211 15.2041 2.16211 12C2.16211 8.79582 2.17435 8.41627 2.23208 7.15092C2.28543 5.98093 2.48092 5.34554 2.64526 4.92269C2.86295 4.36257 3.12298 3.96282 3.54293 3.54293C3.96282 3.12298 4.36257 2.86295 4.92269 2.64526C5.34554 2.48092 5.98093 2.28543 7.15092 2.23208C8.41627 2.17435 8.79582 2.16211 12 2.16211ZM5.8377 11.9999C5.8377 8.59657 8.59657 5.8377 11.9999 5.8377C15.4031 5.8377 18.162 8.59657 18.162 11.9999C18.162 15.4031 15.4031 18.162 11.9999 18.162C8.59657 18.162 5.8377 15.4031 5.8377 11.9999ZM11.9998 15.9998C9.79066 15.9998 7.9998 14.209 7.9998 11.9998C7.9998 9.79066 9.79066 7.9998 11.9998 7.9998C14.209 7.9998 15.9998 9.79066 15.9998 11.9998C15.9998 14.209 14.209 15.9998 11.9998 15.9998ZM18.4058 7.0343C19.2011 7.0343 19.8458 6.38962 19.8458 5.59432C19.8458 4.79902 19.2011 4.1543 18.4058 4.1543C17.6105 4.1543 16.9658 4.79902 16.9658 5.59432C16.9658 6.38962 17.6105 7.0343 18.4058 7.0343Z" fill="currentColor"/>
</svg>
