<svg width="24" height="21" viewBox="0 0 24 21" fill="none" xmlns="http://www.w3.org/2000/svg">
    <path fill-rule="evenodd" clip-rule="evenodd" d="M24 2.48602C23.1182 2.90769 22.1687 3.19285 21.1727 3.32026C22.1898 2.66501 22.9702 1.626 23.3379 0.388299C22.3856 0.995016 21.3333 1.4364 20.2092 1.67302C19.3133 0.64312 18.0328 0 16.6156 0C13.8982 0 11.6936 2.37378 11.6936 5.30119C11.6936 5.71679 11.7359 6.12026 11.8204 6.50856C7.72812 6.28711 4.10072 4.17876 1.67072 0.967714C1.2467 1.75341 1.0044 2.66501 1.0044 3.63575C1.0044 5.47411 1.87357 7.09707 3.19493 8.0481C2.38915 8.02232 1.62846 7.78115 0.96355 7.38678V7.452C0.96355 10.0215 2.66103 12.1647 4.91495 12.6501C4.5022 12.7744 4.06691 12.8366 3.61754 12.8366C3.30058 12.8366 2.99067 12.8048 2.69061 12.7426C3.31749 14.8479 5.13471 16.3814 7.29002 16.4223C5.60521 17.8451 3.48089 18.693 1.17485 18.693C0.777602 18.693 0.384575 18.6687 0 18.6202C2.17926 20.1218 4.76845 21 7.54781 21C16.6057 21 21.5573 12.9231 21.5573 5.91701C21.5573 5.68646 21.5531 5.4559 21.5446 5.2299C22.5068 4.48212 23.3421 3.5493 24 2.48602Z" fill="currentColor"/>
</svg>
